<svg width="102" height="36" viewBox="0 0 102 36" fill="none" xmlns="http://www.w3.org/2000/svg">
<path d="M14.0612 9.51256H15.9666C16.0932 9.51256 16.1945 9.41128 16.1945 9.291C16.1945 9.1644 16.0932 9.06311 15.9666 9.06311H14.0612C13.9409 9.06311 13.8333 9.1644 13.8333 9.291C13.8333 9.41128 13.9346 9.51256 14.0612 9.51256ZM15.0107 26.2308C14.4663 26.2308 14.0169 26.6802 14.0169 27.2246C14.0169 27.769 14.46 28.2185 15.0107 28.2185C15.5614 28.2185 16.0046 27.7754 16.0046 27.2246C16.0046 26.6739 15.5614 26.2308 15.0107 26.2308ZM10.1491 25.3825H19.885V10.9812H10.1491V25.3825ZM41.3509 20.6538C40.8888 20.6538 40.471 20.8057 40.0975 21.1096C39.724 21.4198 39.4772 21.8186 39.3632 22.3187C39.3062 22.5529 39.2809 22.7428 39.2809 22.8884V24.2874C39.2809 24.9014 39.4645 25.4205 39.8443 25.8383C40.2178 26.2561 40.7052 26.4713 41.3066 26.4713C42.0093 26.4713 42.56 26.1991 42.9525 25.6547C43.345 25.1103 43.5412 24.395 43.5412 23.5024C43.5412 22.6858 43.3576 22.0085 42.9905 21.4767C42.579 20.9323 42.0346 20.6538 41.3509 20.6538ZM75.49 20.5335C74.743 20.5335 74.167 20.869 73.7808 21.5337C73.439 22.0845 73.2744 22.7555 73.2744 23.5531C73.2744 24.3254 73.439 24.99 73.7808 25.5408C74.1796 26.2055 74.7494 26.541 75.4773 26.541C76.1863 26.541 76.7497 26.2055 77.1549 25.5218C77.503 24.9647 77.6803 24.2937 77.6803 23.5214C77.6803 22.7491 77.5157 22.0845 77.1802 21.5337C76.775 20.869 76.218 20.5335 75.49 20.5335ZM50.6058 20.6538C50.1436 20.6538 49.7259 20.8057 49.3524 21.1096C48.9789 21.4198 48.732 21.8186 48.6117 22.3187C48.5548 22.5529 48.5294 22.7428 48.5294 22.8884V24.2874C48.5294 24.9014 48.713 25.4205 49.0928 25.8383C49.4663 26.2561 49.9537 26.4713 50.5551 26.4713C51.2641 26.4713 51.8085 26.1991 52.2073 25.6547C52.5998 25.1103 52.796 24.395 52.796 23.5024C52.796 22.6858 52.6124 22.0085 52.239 21.4767C51.8338 20.9323 51.2894 20.6538 50.6058 20.6538ZM31.2731 17.6406H31.2352C31.1149 18.1407 30.9376 18.8687 30.6781 19.8435L29.7096 22.8947H32.8431L31.8619 19.8435C31.7542 19.527 31.558 18.7927 31.2731 17.6406ZM89.6824 20.4449C89.0747 20.4449 88.5747 20.7045 88.1948 21.2109C87.8847 21.616 87.6947 22.0971 87.6378 22.6605H91.5372C91.5499 22.1098 91.4296 21.6287 91.1764 21.2235C90.8472 20.7108 90.3471 20.4449 89.6824 20.4449ZM39.5215 12.1333C39.5468 12.051 39.5468 11.975 39.5468 11.8927V11.2977C38.7745 11.2914 38.0339 11.4496 38.0339 12.108C38.0339 12.5384 38.3124 12.7347 38.6542 12.7347C39.1037 12.7283 39.4139 12.4435 39.5215 12.1333ZM29.3108 9.41128C29.1968 9.04412 29.0955 8.63898 29.0069 8.29082H28.9879C28.8993 8.63898 28.8043 9.05678 28.7031 9.41128L28.241 10.8926H29.7792L29.3108 9.41128ZM97.2534 0.669189H5.04056C2.69836 0.669189 0.786621 2.58093 0.786621 4.92312V31.4216C0.786621 33.7638 2.69836 35.6692 5.04056 35.6692H97.2534C99.602 35.6692 101.507 33.7638 101.507 31.4216V4.92312C101.514 2.58093 99.602 0.669189 97.2534 0.669189ZM91.4106 8.98082C92.8159 8.98082 93.2844 10.1393 93.2844 11.0888C93.2844 11.2914 93.2654 11.4559 93.2464 11.5509H90.3408C90.3661 12.3359 90.9738 12.6714 91.6765 12.6714C92.1829 12.6714 92.5437 12.5891 92.8792 12.4751L93.0375 13.2221C92.664 13.3803 92.1449 13.5006 91.5246 13.5006C90.1192 13.5006 89.29 12.6397 89.29 11.3104C89.29 10.1139 90.018 8.98082 91.4106 8.98082ZM74.0277 9.0821L74.0784 9.73412H74.1037C74.2999 9.39229 74.7684 8.98715 75.49 8.98715C76.2496 8.98715 77.0283 9.47458 77.0283 10.8482V13.4247H75.9331V10.9749C75.9331 10.3545 75.6989 9.87971 75.1039 9.87971C74.6671 9.87971 74.3632 10.1899 74.2493 10.5191C74.2113 10.6077 74.1986 10.7406 74.1986 10.8672V13.4247H73.1035V10.3798C73.1035 9.87971 73.0845 9.46192 73.0655 9.08843H74.0277V9.0821ZM62.5193 8.98082C63.9246 8.98082 64.3931 10.1393 64.3931 11.0888C64.3931 11.2914 64.3741 11.4559 64.3551 11.5509H61.4495C61.4748 12.3359 62.0825 12.6714 62.7852 12.6714C63.2916 12.6714 63.6461 12.5891 63.9879 12.4751L64.1462 13.2221C63.7727 13.3803 63.2536 13.5006 62.6332 13.5006C61.2279 13.5006 60.3987 12.6397 60.3987 11.3104C60.3987 10.1139 61.133 8.98082 62.5193 8.98082ZM58.0312 7.0944H59.1263V13.4183H58.0312V7.0944ZM49.346 9.75311C48.9156 9.75311 48.4725 9.88605 48.1813 10.076L47.966 9.36063C48.2889 9.1644 48.8459 8.98082 49.5359 8.98082C50.9286 8.98082 51.3274 9.86072 51.3274 10.8166V12.3738C51.3274 12.7663 51.3464 13.1461 51.397 13.4183H50.4095L50.3272 12.9372H50.3019C50.0424 13.2727 49.5866 13.5196 49.0169 13.5196C48.1433 13.5196 47.6559 12.8866 47.6559 12.2282C47.6559 11.1394 48.6244 10.5824 50.2323 10.5887V10.5191C50.2259 10.2279 50.1057 9.75311 49.346 9.75311ZM42.8639 7.27165C43.2373 7.27165 43.4716 7.53119 43.4779 7.86669C43.4779 8.18954 43.2373 8.45541 42.8512 8.45541C42.484 8.45541 42.2435 8.18954 42.2435 7.86669C42.2498 7.53119 42.503 7.27165 42.8639 7.27165ZM43.4083 9.0821V13.4183H42.3131V9.0821H43.4083ZM28.3422 7.41091H29.7412L31.6909 13.412H30.5072L29.9628 11.7092H28.0637L27.5446 13.412H26.4115L28.3422 7.41091ZM21.0434 27.3196C21.0434 28.3767 20.1825 29.2376 19.1254 29.2376H10.896C9.83889 29.2376 8.97798 28.3831 8.97798 27.3196V9.03779C8.97798 7.98064 9.83889 7.11972 10.896 7.11972H19.1254C20.1825 7.11972 21.0434 7.98064 21.0434 9.03779V27.3196ZM34.2674 27.7564L33.1786 24.3254H29.3804L28.3422 27.7564H26.4052L30.159 16.077H32.4822L36.2614 27.7564H34.2674ZM34.6915 13.4183H33.6153L32.0011 9.0821H33.1849L33.8875 11.285C34.0141 11.6648 34.1028 12.013 34.1787 12.3738H34.2041C34.2864 12.0193 34.3813 11.6775 34.4953 11.285L35.1916 9.0821H36.3437L34.6915 13.4183ZM36.9514 12.2219C36.9514 11.1331 37.9199 10.576 39.5278 10.5824V10.5127C39.5278 10.2279 39.4139 9.75311 38.6479 9.75311C38.2174 9.75311 37.7743 9.88605 37.4831 10.076L37.2679 9.36063C37.5907 9.1644 38.1478 8.98082 38.8378 8.98082C40.2241 8.98082 40.6293 9.86072 40.6293 10.8166V12.3738C40.6293 12.7663 40.6483 13.1461 40.6989 13.4183H39.7114L39.6291 12.9372H39.6038C39.3442 13.2727 38.8885 13.5196 38.3187 13.5196C37.4388 13.5133 36.9514 12.8803 36.9514 12.2219ZM44.2755 26.8448C43.5792 27.5791 42.7119 27.9526 41.6801 27.9526C40.5596 27.9526 39.762 27.5538 39.2746 26.7562V31.181H37.4072V22.1034C37.4072 21.2045 37.3818 20.2803 37.3375 19.3371H38.9834L39.0847 20.6728H39.1163C39.743 19.6726 40.6862 19.1662 41.9586 19.1662C42.9525 19.1662 43.7817 19.5587 44.4464 20.3436C45.1111 21.1286 45.4403 22.1667 45.4403 23.4455C45.4466 24.8824 45.0541 26.0092 44.2755 26.8448ZM46.2252 13.4183H45.1301V7.0944H46.2252V13.4183ZM53.5303 26.8448C52.834 27.5791 51.9668 27.9526 50.9349 27.9526C49.8208 27.9526 49.0169 27.5538 48.5358 26.7562V31.181H46.662V22.1034C46.662 21.2045 46.6367 20.2803 46.5924 19.3371H48.2319L48.3395 20.6728H48.3712C48.9979 19.6726 49.9411 19.1662 51.2135 19.1662C52.2073 19.1662 53.0366 19.5587 53.7013 20.3436C54.3659 21.1286 54.7014 22.1667 54.7014 23.4455C54.6951 24.8824 54.309 26.0092 53.5303 26.8448ZM54.8154 13.5133C54.252 13.5133 53.7582 13.2981 53.4417 12.7663H53.4227L53.3721 13.4183H52.4352C52.4542 13.1271 52.4732 12.646 52.4732 12.1966V7.0944H53.5683V9.67715H53.5873C53.8532 9.25935 54.3279 8.98082 54.98 8.98082C56.0371 8.98082 56.7968 9.86072 56.7904 11.1774C56.7841 12.741 55.7902 13.5133 54.8154 13.5133ZM64.2348 26.9081C63.4688 27.5918 62.4117 27.9273 61.0507 27.9273C59.791 27.9273 58.7845 27.6867 58.0248 27.1993L58.4616 25.6421C59.2782 26.1232 60.1834 26.37 61.1583 26.37C61.8673 26.37 62.4117 26.2118 62.8042 25.8953C63.1966 25.5788 63.3929 25.1546 63.3929 24.6166C63.3929 24.1481 63.2283 23.7493 62.9118 23.4265C62.5826 23.1036 62.0509 22.8061 61.3039 22.5276C59.2592 21.7679 58.2401 20.6538 58.2401 19.1852C58.2401 18.2293 58.5945 17.438 59.3225 16.824C60.0442 16.2163 61 15.9061 62.1901 15.9061C63.2536 15.9061 64.1335 16.0897 64.8425 16.4569L64.3677 17.9824C63.7094 17.628 62.9624 17.4444 62.1268 17.4444C61.4685 17.4444 60.9494 17.609 60.5759 17.9255C60.2657 18.2167 60.1075 18.5712 60.1075 18.9826C60.1075 19.4384 60.2847 19.8246 60.6455 20.1284C60.9557 20.4069 61.5255 20.7045 62.3421 21.0273C63.3486 21.4261 64.0892 21.9072 64.564 22.4516C65.0387 22.996 65.273 23.667 65.273 24.4773C65.2666 25.4775 64.9185 26.2877 64.2348 26.9081ZM70.8309 20.7361H68.7673V24.8318C68.7673 25.8699 69.1344 26.389 69.8624 26.389C70.1979 26.389 70.4701 26.3637 70.6917 26.3067L70.7423 27.7247C70.3752 27.864 69.8877 27.9336 69.2864 27.9336C68.552 27.9336 67.9697 27.7121 67.5519 27.2563C67.1341 26.8068 66.9252 26.0472 66.9252 24.99V20.7361H65.6971V19.3371H66.9252V17.7989L68.7609 17.2418V19.3371H70.8246V20.7361H70.8309ZM69.7738 13.5133C68.552 13.5133 67.6025 12.6777 67.6025 11.2787C67.6025 9.85439 68.5394 8.98082 69.8497 8.98082C71.1411 8.98082 72.0084 9.89238 72.0084 11.2091C72.002 12.8043 70.8753 13.5133 69.7738 13.5133ZM78.5095 26.6676C77.7309 27.5221 76.7054 27.9463 75.4267 27.9463C74.186 27.9463 73.1984 27.5348 72.4705 26.7182C71.7362 25.9016 71.3753 24.8634 71.3753 23.6164C71.3753 22.3123 71.7552 21.2425 72.5085 20.4133C73.2681 19.5777 74.2809 19.1662 75.566 19.1662C76.8067 19.1662 77.8005 19.5713 78.5475 20.3943C79.2628 21.1856 79.6173 22.2174 79.6173 23.4771C79.611 24.7748 79.2439 25.832 78.5095 26.6676ZM80.4403 9.0821H81.0543V8.2655L82.1304 7.96165V9.07577H83.1749V9.89238H82.1304V11.8104C82.1304 12.3422 82.2697 12.6144 82.6938 12.6144C82.8901 12.6144 82.9977 12.6081 83.1243 12.5701L83.1433 13.3993C82.985 13.4626 82.6875 13.5133 82.352 13.5133C81.9405 13.5133 81.6114 13.3803 81.4088 13.1588C81.1683 12.9119 81.0606 12.5068 81.0606 11.937V9.89871H80.4466V9.0821H80.4403ZM85.2449 20.983C85.0614 20.9513 84.8651 20.9323 84.6562 20.9323C83.9979 20.9323 83.4915 21.1792 83.1306 21.673C82.8204 22.1161 82.6622 22.6605 82.6622 23.3378V27.7564H80.7884V21.9832C80.7884 21.021 80.7694 20.1347 80.7378 19.3371H82.3647L82.4343 20.9513H82.4849C82.6812 20.4006 82.9914 19.9512 83.4218 19.622C83.8396 19.3181 84.2891 19.1725 84.7765 19.1725C84.9474 19.1725 85.1057 19.1789 85.2386 19.2042V20.983H85.2449ZM85.5298 10.8166V13.4183H84.4347V7.0944H85.5298V9.67082H85.5488C85.6817 9.46825 85.8716 9.29733 86.0932 9.18339C86.3147 9.05678 86.5743 8.98715 86.8528 8.98715C87.5935 8.98715 88.3658 9.47458 88.3658 10.8672V13.4247H87.2706V10.9875C87.2706 10.3608 87.0364 9.87971 86.435 9.87971C86.0046 9.87971 85.707 10.1646 85.5804 10.4938C85.5361 10.5824 85.5298 10.7026 85.5298 10.8166ZM93.2527 24.0025H87.6378C87.6631 24.8318 87.929 25.4648 88.4544 25.9016C88.9291 26.2941 89.5368 26.4903 90.2902 26.4903C91.1257 26.4903 91.879 26.3574 92.5627 26.0915L92.8602 27.3955C92.069 27.7437 91.1194 27.9146 90.0369 27.9146C88.7329 27.9146 87.7074 27.5348 86.9668 26.7625C86.2198 25.9966 85.8463 24.9647 85.8463 23.6733C85.8463 22.401 86.1945 21.3438 86.8845 20.5019C87.6188 19.603 88.6 19.1535 89.8344 19.1535C91.0498 19.1535 91.9677 19.603 92.588 20.5019C93.0818 21.2172 93.335 22.1034 93.335 23.1543C93.316 23.4834 93.297 23.7683 93.2527 24.0025ZM54.5748 9.8354C54.1317 9.8354 53.7202 10.1582 53.6063 10.6393C53.5873 10.7216 53.5683 10.8166 53.5683 10.9242V11.6269C53.5683 11.7155 53.5746 11.8041 53.5936 11.8864C53.7076 12.3295 54.0937 12.6524 54.5622 12.6524C55.2458 12.6524 55.67 12.108 55.67 11.2281C55.67 10.4621 55.3028 9.8354 54.5748 9.8354ZM62.456 9.72779C61.7787 9.72779 61.4938 10.3418 61.4495 10.7849H63.3549C63.3676 10.3861 63.1903 9.72779 62.456 9.72779ZM69.8181 9.7721C69.0458 9.7721 68.7293 10.5317 68.7293 11.2534C68.7293 12.089 69.1471 12.722 69.8054 12.722C70.4258 12.722 70.8626 12.1143 70.8626 11.2344C70.8689 10.5571 70.5651 9.7721 69.8181 9.7721ZM48.7383 12.108C48.7383 12.5384 49.0169 12.7347 49.3587 12.7347C49.8018 12.7347 50.1183 12.4498 50.2259 12.1396C50.2513 12.0573 50.2513 11.9814 50.2513 11.8991V11.304C49.479 11.2914 48.7383 11.4496 48.7383 12.108ZM91.3473 9.72779C90.67 9.72779 90.3851 10.3418 90.3408 10.7849H92.2462C92.2525 10.3861 92.0753 9.72779 91.3473 9.72779Z" fill="#D7C2FF"/>
</svg>
