<svg width="66" height="71" viewBox="0 0 66 71" fill="none" xmlns="http://www.w3.org/2000/svg">
<path d="M50.9024 0.884033H11.9082V70.4327H50.9024V0.884033Z" fill="#4D0063" stroke="#280074" stroke-miterlimit="10"/>
<path d="M39.6647 2.86987H23.1914V4.63003H39.6647V2.86987Z" fill="#280074"/>
<path d="M11.9082 0.884033V70.4327H31.4053V68.4469V65.9195V63.9337V5.8937V4.63V2.86985V0.884033H11.9082Z" fill="#4D0063"/>
<path d="M48.8264 5.89355H13.9844V63.9335H48.8264V5.89355Z" fill="white" stroke="#280074" stroke-miterlimit="10" stroke-linecap="round" stroke-linejoin="round"/>
<path d="M31.7665 5.89355H13.9844V63.9335H31.7665V5.89355Z" fill="#C08ACF"/>
<path d="M35.4671 67.1831C35.4671 67.8601 34.9255 68.4468 34.2034 68.4468H28.607C27.93 68.4468 27.3433 67.9052 27.3433 67.1831C27.3433 66.5061 27.8848 65.9194 28.607 65.9194H34.2034C34.9255 65.9194 35.4671 66.5061 35.4671 67.1831Z" fill="white" stroke="#280074" stroke-miterlimit="10" stroke-linecap="round" stroke-linejoin="round"/>
<path d="M28.517 65.9194C27.8851 65.9194 27.3887 66.461 27.3887 67.1831C27.3887 67.9052 27.8851 68.4468 28.517 68.4468H31.4506V65.9646H28.517V65.9194Z" fill="#C08ACF"/>
<path d="M27.1629 27.7827V21.058L25.6284 18.8465V11.1741" stroke="#280074" stroke-miterlimit="10"/>
<path d="M35.7383 27.7827V22.6827L37.2728 20.4713V11.4448" stroke="#280074" stroke-miterlimit="10"/>
<path d="M33.2104 27.7828V21.2838L34.7449 19.7041V13.8821" stroke="#280074" stroke-miterlimit="10"/>
<path d="M29.6903 27.7828V21.2838L28.1558 19.7041V13.8821" stroke="#280074" stroke-miterlimit="10"/>
<path d="M31.4507 27.7828V15.552" stroke="#280074" stroke-miterlimit="10"/>
<path d="M32.3983 16.3644C32.3983 16.9511 31.9018 17.4476 31.3151 17.4476C30.7284 17.4476 30.2319 16.9511 30.2319 16.3644C30.2319 15.7777 30.7284 15.2812 31.3151 15.2812C31.947 15.2812 32.3983 15.7777 32.3983 16.3644Z" fill="#280074"/>
<path d="M29.1942 13.3405C29.1942 13.9272 28.6977 14.4237 28.111 14.4237C27.5243 14.4237 27.0278 13.9272 27.0278 13.3405C27.0278 12.7538 27.5243 12.2573 28.111 12.2573C28.6977 12.2573 29.1942 12.7538 29.1942 13.3405Z" fill="#280074"/>
<path d="M35.7835 13.3405C35.7835 13.9272 35.2871 14.4237 34.7004 14.4237C34.1136 14.4237 33.6172 13.9272 33.6172 13.3405C33.6172 12.7538 34.1136 12.2573 34.7004 12.2573C35.3322 12.2573 35.7835 12.7538 35.7835 13.3405Z" fill="#280074"/>
<path d="M38.3109 10.6777C38.3109 11.2644 37.8144 11.7608 37.2277 11.7608C36.641 11.7608 36.1445 11.2644 36.1445 10.6777C36.1445 10.0909 36.641 9.59448 37.2277 9.59448C37.8596 9.63961 38.3109 10.0909 38.3109 10.6777Z" fill="#280074"/>
<path d="M26.7118 10.6777C26.7118 11.2644 26.2153 11.7608 25.6286 11.7608C25.0419 11.7608 24.5454 11.2644 24.5454 10.6777C24.5454 10.0909 25.0419 9.59448 25.6286 9.59448C26.2153 9.63961 26.7118 10.0909 26.7118 10.6777Z" fill="#280074"/>
<path d="M35.7383 43.4888V50.2586L37.2728 52.4701V60.0974" stroke="#280074" stroke-miterlimit="10"/>
<path d="M27.1629 43.4888V48.6338L25.6284 50.8453V59.8718" stroke="#280074" stroke-miterlimit="10"/>
<path d="M29.6903 43.4888V49.9878L28.1558 51.5674V57.3895" stroke="#280074" stroke-miterlimit="10"/>
<path d="M33.2104 43.4888V49.9878L34.7449 51.5674V57.3895" stroke="#280074" stroke-miterlimit="10"/>
<path d="M31.4502 43.4888V55.7647" stroke="#280074" stroke-miterlimit="10"/>
<path d="M30.4575 54.9523C30.4575 54.3656 30.954 53.8691 31.5407 53.8691C32.1274 53.8691 32.6239 54.3656 32.6239 54.9523C32.6239 55.539 32.1274 56.0355 31.5407 56.0355C30.954 56.0355 30.4575 55.539 30.4575 54.9523Z" fill="#280074"/>
<path d="M33.707 57.9762C33.707 57.3895 34.2035 56.8931 34.7902 56.8931C35.3769 56.8931 35.8734 57.3895 35.8734 57.9762C35.8734 58.563 35.3769 59.0594 34.7902 59.0594C34.2035 59.0594 33.707 58.563 33.707 57.9762Z" fill="#280074"/>
<path d="M27.0728 57.9762C27.0728 57.3895 27.5692 56.8931 28.1559 56.8931C28.7426 56.8931 29.2391 57.3895 29.2391 57.9762C29.2391 58.563 28.7426 59.0594 28.1559 59.0594C27.5692 59.0594 27.0728 58.563 27.0728 57.9762Z" fill="#280074"/>
<path d="M24.5903 60.5939C24.5903 60.0072 25.0868 59.5107 25.6735 59.5107C26.2602 59.5107 26.7567 60.0072 26.7567 60.5939C26.7567 61.1806 26.2602 61.6771 25.6735 61.6771C25.0417 61.6771 24.5903 61.1806 24.5903 60.5939Z" fill="#280074"/>
<path d="M36.1895 60.5939C36.1895 60.0072 36.6859 59.5107 37.2726 59.5107C37.8593 59.5107 38.3558 60.0072 38.3558 60.5939C38.3558 61.1806 37.8593 61.6771 37.2726 61.6771C36.6408 61.6771 36.1895 61.1806 36.1895 60.5939Z" fill="#280074"/>
<path d="M44.2681 31.3031H51.0379L53.2494 29.7686H60.8767" stroke="#280074" stroke-miterlimit="10"/>
<path d="M44.2681 39.833H49.368L51.5795 41.3675H60.6059" stroke="#280074" stroke-miterlimit="10"/>
<path d="M44.2681 37.3508H50.7671L52.3467 38.8402H58.1688" stroke="#280074" stroke-miterlimit="10"/>
<path d="M44.2681 33.7853H50.7671L52.3467 32.2959H58.1688" stroke="#280074" stroke-miterlimit="10"/>
<path d="M44.2681 35.5906H56.4989" stroke="#280074" stroke-miterlimit="10"/>
<path d="M55.7316 36.5384C55.1449 36.5384 54.6484 36.042 54.6484 35.4552C54.6484 34.8685 55.1449 34.3721 55.7316 34.3721C56.3183 34.3721 56.8148 34.8685 56.8148 35.4552C56.7696 36.0871 56.3183 36.5384 55.7316 36.5384Z" fill="#280074"/>
<path d="M58.7555 33.2889C58.1688 33.2889 57.6724 32.7924 57.6724 32.2057C57.6724 31.619 58.1688 31.1226 58.7555 31.1226C59.3423 31.1226 59.8387 31.619 59.8387 32.2057C59.7936 32.8376 59.3423 33.2889 58.7555 33.2889Z" fill="#280074"/>
<path d="M58.7555 39.9232C58.1688 39.9232 57.6724 39.4267 57.6724 38.84C57.6724 38.2533 58.1688 37.7568 58.7555 37.7568C59.3423 37.7568 59.8387 38.2533 59.8387 38.84C59.7936 39.4267 59.3423 39.9232 58.7555 39.9232Z" fill="#280074"/>
<path d="M61.3732 42.4508C60.7865 42.4508 60.29 41.9543 60.29 41.3676C60.29 40.7809 60.7865 40.2844 61.3732 40.2844C61.9599 40.2844 62.4564 40.7809 62.4564 41.3676C62.4564 41.9543 61.9599 42.4508 61.3732 42.4508Z" fill="#280074"/>
<path d="M61.3732 30.8065C60.7865 30.8065 60.29 30.31 60.29 29.7233C60.29 29.1366 60.7865 28.6401 61.3732 28.6401C61.9599 28.6401 62.4564 29.1366 62.4564 29.7233C62.4564 30.3552 61.9599 30.8065 61.3732 30.8065Z" fill="#280074"/>
<path d="M18.5427 31.3031H11.818L9.60655 29.7686H1.93408" stroke="#280074" stroke-miterlimit="10"/>
<path d="M18.5429 39.833H13.443L11.2315 41.3675H2.20508" stroke="#280074" stroke-miterlimit="10"/>
<path d="M18.5428 37.3508H12.0438L10.4641 38.8402H4.64209" stroke="#280074" stroke-miterlimit="10"/>
<path d="M18.5428 33.7853H12.0438L10.4641 32.2959H4.64209" stroke="#280074" stroke-miterlimit="10"/>
<path d="M18.5428 35.5906H6.31201" stroke="#280074" stroke-miterlimit="10"/>
<path d="M7.12419 36.5384C7.7109 36.5384 8.20736 36.042 8.20736 35.4552C8.20736 34.8685 7.7109 34.3721 7.12419 34.3721C6.53747 34.3721 6.04102 34.8685 6.04102 35.4552C6.04102 36.0871 6.49234 36.5384 7.12419 36.5384Z" fill="#280074"/>
<path d="M4.10026 33.2889C4.68698 33.2889 5.18344 32.7924 5.18344 32.2057C5.18344 31.619 4.68698 31.1226 4.10026 31.1226C3.51354 31.1226 3.01709 31.619 3.01709 32.2057C3.01709 32.8376 3.51354 33.2889 4.10026 33.2889Z" fill="#280074"/>
<path d="M4.10026 39.9232C4.68698 39.9232 5.18344 39.4267 5.18344 38.84C5.18344 38.2533 4.68698 37.7568 4.10026 37.7568C3.51354 37.7568 3.01709 38.2533 3.01709 38.84C3.01709 39.4267 3.51354 39.9232 4.10026 39.9232Z" fill="#280074"/>
<path d="M1.43766 42.4508C2.02438 42.4508 2.52084 41.9543 2.52084 41.3676C2.52084 40.7809 2.02438 40.2844 1.43766 40.2844C0.850945 40.2844 0.354492 40.7809 0.354492 41.3676C0.399624 41.9543 0.850945 42.4508 1.43766 42.4508Z" fill="#280074"/>
<path d="M1.43766 30.8065C2.02438 30.8065 2.52084 30.31 2.52084 29.7233C2.52084 29.1366 2.02438 28.6401 1.43766 28.6401C0.850945 28.6401 0.354492 29.1366 0.354492 29.7233C0.399624 30.3552 0.850945 30.8065 1.43766 30.8065Z" fill="#280074"/>
<path d="M44.0878 44.0303C44.0878 46.3321 42.2374 48.1825 39.9356 48.1825H23.011C20.7093 48.1825 18.8589 46.3321 18.8589 44.0303V27.1058C18.8589 24.804 20.7093 22.9536 23.011 22.9536H39.9356C42.2374 22.9536 44.0878 24.804 44.0878 27.1058V44.0303Z" fill="#4D0063" stroke="#280074" stroke-miterlimit="10"/>
<path d="M31.2702 22.9084H23.011C20.7093 22.9084 18.8589 24.7589 18.8589 27.0606V43.9852C18.8589 46.2869 20.7093 48.1373 23.011 48.1373H31.3154V22.9084H31.2702Z" fill="#4D0063"/>
<path d="M37.6788 36.358C37.2275 35.7713 36.4602 35.3651 35.4673 35.0943C36.1443 34.8686 36.6408 34.5527 36.9567 34.1465C37.4531 33.5598 37.7239 32.8377 37.7239 32.0253C37.7239 31.0324 37.3629 30.22 36.6408 29.543C36.0992 29.0466 35.3319 28.7306 34.4293 28.5952V27.3315H32.8948V28.5501H31.3152V27.3315H29.7807V28.5501H25.4028V42.5411H29.7807V43.7597H31.3152V42.5411H32.8948V43.7597H34.4293V42.4057C34.5647 42.4057 34.7001 42.3606 34.8355 42.3606C35.5576 42.2703 36.0992 42.0898 36.4602 41.9092C37.0469 41.5933 37.4983 41.0969 37.8593 40.5553C38.1753 39.9686 38.3558 39.3367 38.3558 38.6146C38.3558 37.6668 38.1301 36.9447 37.6788 36.358ZM29.8258 31.3934H31.7213C32.3983 31.3934 32.8496 31.5288 33.1204 31.7545C33.3912 31.9802 33.5266 32.2961 33.5266 32.7023C33.5266 33.1536 33.3912 33.4695 33.1204 33.6952C32.8496 33.9208 32.3983 34.0562 31.7213 34.0562H29.8258V31.3934ZM29.8258 39.5624V36.719H32.0373C32.8045 36.719 33.3461 36.8544 33.6169 37.0801C33.9328 37.3509 34.0682 37.6668 34.0682 38.073C34.0682 38.5243 33.9328 38.8854 33.6169 39.1562C33.301 39.427 32.8045 39.5624 32.0373 39.5624H29.8258Z" fill="#C08ACF"/>
<path d="M62.592 54.3206H48.8267C47.3824 54.3206 46.209 55.494 46.209 56.9382V67.8151C46.209 69.2593 47.3824 70.4327 48.8267 70.4327H62.592C64.0362 70.4327 65.2096 69.2593 65.2096 67.8151V56.9382C65.2096 55.494 64.0362 54.3206 62.592 54.3206Z" fill="#EB5757" stroke="#280074" stroke-miterlimit="10"/>
<path d="M62.9984 54.3205H60.471V50.1684C60.471 47.5507 58.3498 45.4295 55.7321 45.4295C53.1144 45.4295 51.0384 47.5507 51.0384 50.1684V54.3205H48.4658V50.1684C48.4658 46.1516 51.7153 42.9021 55.7321 42.9021C59.7489 42.9021 62.9984 46.1516 62.9984 50.1684V54.3205Z" fill="#4D0063" stroke="#280074" stroke-miterlimit="10"/>
<path d="M55.6418 42.9021C51.6702 42.9472 48.4658 46.1967 48.4658 50.1684V54.3205H51.0384V50.1684C51.0384 47.5958 53.1144 45.5198 55.687 45.4746V42.9021H55.6418Z" fill="#4D0063"/>
<path d="M48.8267 54.3206C47.3824 54.3206 46.209 55.494 46.209 56.9382V67.8151C46.209 69.2593 47.3824 70.4327 48.8267 70.4327H55.7319V54.3206H48.8267Z" fill="#EB5757"/>
<path d="M58.1692 60.5035C58.1692 59.1496 57.086 58.0664 55.7321 58.0664C54.3781 58.0664 53.2949 59.1496 53.2949 60.5035C53.2949 61.5416 53.9268 62.4442 54.8745 62.8053L54.5586 66.6867H56.9506L56.6347 62.8053C57.4922 62.3991 58.1692 61.5416 58.1692 60.5035Z" fill="#280074"/>
<path d="M53.2046 55.7646H49.8197C48.6011 55.7646 47.6533 56.7576 47.6533 57.9761V61.1354" stroke="white" stroke-miterlimit="10" stroke-linecap="round" stroke-linejoin="round"/>
<path d="M54.3779 55.7646H56.454" stroke="white" stroke-miterlimit="10" stroke-linecap="round" stroke-linejoin="round"/>
<path d="M49.6392 49.717C50.0905 47.2347 51.8958 45.2038 54.2878 44.4365" stroke="white" stroke-miterlimit="10" stroke-linecap="round" stroke-linejoin="round"/>
<path d="M55.7319 44.211C55.7319 44.211 56.5894 44.1207 57.6726 44.6172" stroke="white" stroke-miterlimit="10" stroke-linecap="round" stroke-linejoin="round"/>
</svg>
