<svg width="102" height="36" viewBox="0 0 102 36" fill="none" xmlns="http://www.w3.org/2000/svg">
<path d="M44.0518 8.13745C43.8431 8.13745 43.6702 8.23246 43.5271 8.4288C43.384 8.62515 43.3125 8.87216 43.3125 9.16984C43.3125 9.48019 43.39 9.73354 43.539 9.92989C43.6881 10.1262 43.8789 10.2212 44.0935 10.2212C44.3021 10.2212 44.475 10.1199 44.6181 9.92355C44.7612 9.72721 44.8327 9.4802 44.8327 9.18251C44.8327 8.87216 44.7552 8.61248 44.6062 8.42247C44.4631 8.23246 44.2783 8.13745 44.0518 8.13745Z" fill="#D7C2FF"/>
<path d="M48.1479 8.15674C48.0882 8.15674 48.0048 8.16307 47.8975 8.17574C47.9094 8.47342 47.9213 8.79011 47.9213 9.11313C47.9213 9.47415 47.9273 9.82883 47.9452 10.1772C48.0346 10.1962 48.13 10.2089 48.2194 10.2089C48.5234 10.2089 48.75 10.1075 48.8931 9.91117C49.0362 9.70849 49.1137 9.46781 49.1137 9.1828C49.1137 8.89778 49.0362 8.65077 48.8752 8.45442C48.7142 8.25174 48.4698 8.15674 48.1479 8.15674Z" fill="#D7C2FF"/>
<path d="M55.0694 8.125C54.968 8.125 54.8607 8.13767 54.7534 8.15667C54.7713 8.44168 54.7773 8.75837 54.7773 9.11939C54.813 9.11939 54.8548 9.12572 54.9025 9.12572C55.4152 9.12572 55.6715 8.95471 55.6715 8.60636C55.6715 8.28968 55.4748 8.125 55.0694 8.125Z" fill="#D7C2FF"/>
<path d="M52.3805 8.11865C52.3805 8.17566 52.2553 8.59368 52.0049 9.37272H52.774C52.5355 8.60001 52.4103 8.18199 52.4103 8.11865H52.3805Z" fill="#D7C2FF"/>
<path d="M32.4024 8.11865C32.4024 8.17566 32.2772 8.59368 32.0269 9.37272H32.7959C32.5575 8.60001 32.4323 8.18199 32.4323 8.11865H32.4024Z" fill="#676099"/>
<path d="M41.0593 8.13135C40.9281 8.13135 40.8089 8.14401 40.7075 8.16302C40.7254 8.39736 40.7314 8.69505 40.7314 9.06873C40.8089 9.06873 40.8744 9.07507 40.9281 9.07507C41.3752 9.07507 41.6018 8.91039 41.6018 8.58104C41.5958 8.27702 41.417 8.13135 41.0593 8.13135Z" fill="#D7C2FF"/>
<path d="M38.0243 8.15674C37.9647 8.15674 37.8812 8.16307 37.7739 8.17574C37.7858 8.47342 37.7978 8.79011 37.7978 9.11313C37.7978 9.47415 37.8037 9.82883 37.8216 10.1772C37.911 10.1962 38.0064 10.2089 38.0959 10.2089C38.3999 10.2089 38.6265 10.1075 38.7695 9.91117C38.9126 9.70849 38.9901 9.46781 38.9901 9.1828C38.9901 8.89778 38.9126 8.65077 38.7517 8.45442C38.5907 8.25174 38.3522 8.15674 38.0243 8.15674Z" fill="#D7C2FF"/>
<path d="M61.5317 8.13745C61.3231 8.13745 61.1502 8.23246 61.0071 8.4288C60.864 8.62515 60.7925 8.87216 60.7925 9.16984C60.7925 9.48019 60.87 9.73354 61.019 9.92989C61.1681 10.1262 61.3588 10.2212 61.5735 10.2212C61.7821 10.2212 61.955 10.1199 62.0981 9.92355C62.2412 9.72721 62.3127 9.4802 62.3127 9.18251C62.3127 8.87216 62.2352 8.61248 62.0862 8.42247C61.9431 8.23246 61.7523 8.13745 61.5317 8.13745Z" fill="#D7C2FF"/>
<path d="M57.6089 8.125C57.5076 8.125 57.4003 8.13767 57.293 8.15667C57.3109 8.44168 57.3168 8.75837 57.3168 9.11939C57.3526 9.11939 57.3943 9.12572 57.442 9.12572C57.9547 9.12572 58.2111 8.95471 58.2111 8.60636C58.2111 8.28968 58.0084 8.125 57.6089 8.125Z" fill="#D7C2FF"/>
<path d="M52.0942 18.6641C51.504 18.6641 50.9913 18.8984 50.5561 19.3671C50.1209 19.8358 49.9062 20.4565 49.9062 21.2355C49.9062 22.0083 50.1209 22.629 50.5561 23.104C50.9913 23.5727 51.504 23.807 52.0942 23.807C52.6844 23.807 53.1971 23.5727 53.6323 23.104C54.0676 22.6353 54.2822 22.0146 54.2822 21.2355C54.2822 20.4628 54.0676 19.8421 53.6323 19.3671C53.1971 18.8984 52.6844 18.6641 52.0942 18.6641Z" fill="#D7C2FF"/>
<path d="M44.7851 18.6641C44.1949 18.6641 43.6822 18.8984 43.247 19.3671C42.8118 19.8358 42.5972 20.4565 42.5972 21.2355C42.5972 22.0083 42.8118 22.629 43.247 23.104C43.6822 23.5727 44.189 23.807 44.7851 23.807C45.3753 23.807 45.888 23.5727 46.3233 23.104C46.7585 22.6353 46.9731 22.0146 46.9731 21.2355C46.9731 20.4628 46.7585 19.8421 46.3233 19.3671C45.888 18.8984 45.3753 18.6641 44.7851 18.6641Z" fill="#D7C2FF"/>
<path d="M79.4824 15.6748H77.3779V19.304H79.4824C80.013 19.304 80.4363 19.114 80.7523 18.7403C81.0742 18.3603 81.2292 17.9486 81.2292 17.4926C81.2292 17.0365 81.0682 16.6185 80.7523 16.2448C80.4363 15.8648 80.0071 15.6748 79.4824 15.6748Z" fill="#D7C2FF"/>
<path d="M87.1076 21.6853C86.7976 21.964 86.6426 22.2934 86.6426 22.6734C86.6426 23.0217 86.7857 23.3004 87.0659 23.5031C87.3461 23.7058 87.674 23.8071 88.0376 23.8071C88.5563 23.8071 89.0273 23.5981 89.4506 23.1928C89.8738 22.7811 90.0885 22.2934 90.0885 21.736C89.7308 21.4257 89.2002 21.2736 88.4907 21.2736C87.8767 21.2673 87.4176 21.4067 87.1076 21.6853Z" fill="#D7C2FF"/>
<path d="M69.1207 18.6641C68.6557 18.6641 68.2503 18.8161 67.9105 19.1264C67.5707 19.4368 67.3322 19.8548 67.207 20.3742H71.0881C71.0583 19.9688 70.8854 19.5824 70.5635 19.2151C70.2416 18.8477 69.7587 18.6641 69.1207 18.6641Z" fill="#D7C2FF"/>
<path d="M59.3495 18.6641C58.7653 18.6641 58.2645 18.8984 57.8472 19.3671C57.4298 19.8358 57.2212 20.4565 57.2212 21.2355C57.2212 22.0083 57.4298 22.629 57.8472 23.104C58.2645 23.5727 58.7653 23.807 59.3495 23.807C59.9397 23.807 60.4465 23.5727 60.8579 23.1103C61.2752 22.648 61.4779 22.0209 61.4779 21.2355C61.4779 20.4502 61.2692 19.8295 60.8579 19.3608C60.4465 18.8984 59.9457 18.6641 59.3495 18.6641Z" fill="#D7C2FF"/>
<path d="M96.7597 0.689209H4.96075C2.50451 0.689209 0.507324 2.80466 0.507324 5.42048V30.9579C0.507324 33.5674 2.49855 35.6892 4.96075 35.6892H96.7597C99.2159 35.6892 101.213 33.5738 101.213 30.9579V5.42048C101.207 2.811 99.2159 0.689209 96.7597 0.689209ZM56.7444 7.71961H57.1141C57.1677 7.71961 57.2691 7.71961 57.4122 7.71328C57.5612 7.70694 57.6864 7.70694 57.7997 7.70694C58.068 7.70694 58.2945 7.77028 58.4793 7.90329C58.6641 8.02996 58.7536 8.22631 58.7536 8.49232C58.7536 8.85334 58.6284 9.11302 58.378 9.28403C58.1276 9.45504 57.8235 9.53738 57.4539 9.53738C57.3883 9.53738 57.3406 9.53738 57.3108 9.53105C57.3108 9.80973 57.3168 10.1834 57.3347 10.6458H56.7385C56.7564 10.2151 56.7683 9.70206 56.7683 9.11302C56.7742 8.57466 56.7623 8.10597 56.7444 7.71961ZM51.5637 9.20803C51.8916 8.30865 52.0585 7.81462 52.0585 7.71961H52.8574C52.8574 7.80195 53.0064 8.29598 53.3045 9.18269C53.6026 10.0757 53.7516 10.5634 53.7516 10.6394H53.072C53.072 10.5381 53.0064 10.2594 52.8812 9.79706H51.9035C51.7723 10.2531 51.7068 10.5318 51.7068 10.6394H51.0689C51.0689 10.5824 51.2358 10.1074 51.5637 9.20803ZM47.3607 7.71961H47.7303C47.7899 7.71961 47.8793 7.71961 47.9986 7.71328C48.1178 7.70694 48.1953 7.70694 48.2311 7.70694C48.7378 7.70694 49.1074 7.83995 49.34 8.1123C49.5665 8.38465 49.6857 8.70767 49.6857 9.08136C49.6857 9.50571 49.5546 9.8794 49.2982 10.1961C49.0419 10.5128 48.6842 10.6711 48.2191 10.6711C48.0105 10.6711 47.7243 10.6648 47.3547 10.6458C47.3726 10.1961 47.3845 9.68306 47.3845 9.11302C47.3845 8.56833 47.3785 8.09963 47.3607 7.71961ZM46.0193 7.71961H46.6154C46.5975 8.09963 46.5856 8.56199 46.5856 9.11302C46.5856 9.67672 46.5975 10.1898 46.6154 10.6458H46.0193C46.0372 10.1834 46.0491 9.67039 46.0491 9.11302C46.0491 8.56833 46.0372 8.09963 46.0193 7.71961ZM43.1278 8.10597C43.3901 7.80195 43.718 7.64994 44.1115 7.64994C44.4811 7.64994 44.7971 7.78928 45.0475 8.06796C45.2979 8.34665 45.4231 8.70133 45.4231 9.12569C45.4231 9.58805 45.2919 9.96807 45.0237 10.2721C44.7613 10.5761 44.4334 10.7281 44.04 10.7281C43.6703 10.7281 43.3544 10.5888 43.104 10.3101C42.8536 10.0314 42.7284 9.67672 42.7284 9.25237C42.7284 8.79001 42.8655 8.40365 43.1278 8.10597ZM37.2376 7.71961H37.6072C37.6669 7.71961 37.7563 7.71961 37.8755 7.71328C37.9948 7.70694 38.0723 7.70694 38.108 7.70694C38.6148 7.70694 38.9844 7.83995 39.2169 8.1123C39.4435 8.38465 39.5627 8.70767 39.5627 9.08136C39.5627 9.50571 39.4315 9.8794 39.1752 10.1961C38.9188 10.5128 38.5611 10.6711 38.0961 10.6711C37.8875 10.6711 37.6013 10.6648 37.2317 10.6458C37.2495 10.1961 37.2615 9.68306 37.2615 9.11302C37.2674 8.56833 37.2555 8.09963 37.2376 7.71961ZM34.2329 7.71961H34.8589C34.8589 7.80195 35.0318 8.11863 35.3835 8.66967C35.7531 9.2587 35.9678 9.65772 36.0214 9.86673H36.0512C36.0155 9.53105 35.9976 9.23336 35.9976 8.96735C35.9976 8.56199 35.9857 8.14397 35.9678 7.71961H36.4984C36.4805 8.0933 36.4686 8.55566 36.4686 9.11302C36.4686 9.67672 36.4805 10.1834 36.4984 10.6458H35.9737C35.9737 10.5824 35.777 10.2594 35.3895 9.67039C34.9841 9.04969 34.7516 8.63166 34.6979 8.40365H34.6622C34.6979 8.733 34.7158 9.03069 34.7158 9.29037C34.7158 9.65772 34.7277 10.1137 34.7456 10.6458H34.2269C34.2508 10.1834 34.2567 9.67039 34.2567 9.11302C34.2627 8.56833 34.2508 8.09963 34.2329 7.71961ZM31.5859 9.20803C31.9138 8.30865 32.0807 7.81462 32.0807 7.71961H32.8796C32.8796 7.80195 33.0286 8.29598 33.3267 9.18269C33.6248 10.0757 33.7738 10.5634 33.7738 10.6394H33.0942C33.0942 10.5381 33.0286 10.2594 32.9034 9.79706H31.9257C31.7945 10.2531 31.729 10.5318 31.729 10.6394H31.0911C31.0911 10.5824 31.258 10.1074 31.5859 9.20803ZM9.28301 8.1693C13.5635 10.7154 17.8441 13.2679 22.1246 15.8077C22.3213 15.9217 22.3154 15.9914 22.1663 16.1498C21.2065 17.1505 20.2586 18.1575 19.3107 19.1709C19.2093 19.2786 19.1437 19.3419 19.0066 19.1963C15.6025 15.5037 12.1923 11.8238 8.78223 8.13763C8.75242 8.10597 8.72857 8.06796 8.67491 7.99196C8.93126 7.98563 9.11012 8.06796 9.28301 8.1693ZM7.96547 30.6413C7.60777 30.3499 7.47064 29.9572 7.47064 29.4885C7.47064 27.5187 7.47064 25.5553 7.46468 23.5855C7.46468 22.1921 7.46468 20.805 7.46468 19.4116H7.47064C7.47064 16.0928 7.47064 12.7676 7.47064 9.44871C7.47064 9.04335 7.54219 8.66966 7.81643 8.35931C7.92374 8.23897 7.99527 8.2073 8.12643 8.34665C10.2309 10.6268 12.3354 12.9006 14.4459 15.1744C15.8111 16.6501 17.1764 18.1195 18.5476 19.589C18.6787 19.7283 18.6906 19.8043 18.5535 19.9563C15.203 23.4968 11.8525 27.0437 8.51395 30.5969C8.30529 30.8249 8.16221 30.7996 7.96547 30.6413ZM21.755 23.4272C17.7666 25.7453 13.7782 28.0761 9.79572 30.4006C9.73014 30.4386 9.67052 30.5019 9.63475 30.5273C12.7408 27.1894 15.8529 23.8579 18.953 20.5137C19.1437 20.3047 19.2332 20.3363 19.406 20.5263C20.193 21.4004 20.9919 22.2554 21.7967 23.1105C21.9338 23.2562 21.9457 23.3132 21.755 23.4272ZM26.9477 20.3427C26.7628 20.4883 26.5542 20.6087 26.3515 20.729C25.1472 21.4384 23.937 22.1414 22.7327 22.8508C22.5717 22.9458 22.4763 22.9458 22.3392 22.7938C21.4807 21.8564 20.6163 20.919 19.7518 19.9943C19.6266 19.8613 19.6207 19.7853 19.7518 19.6523C20.7653 18.5946 21.7729 17.5242 22.7744 16.4538C22.8937 16.3271 22.9771 16.3144 23.1262 16.4031C24.3185 17.1188 25.5168 17.8282 26.7092 18.5376C27.0788 18.7592 27.365 19.0443 27.3829 19.5066C27.365 19.8866 27.204 20.1463 26.9477 20.3427ZM39.6044 23.4842C38.6863 24.5102 37.488 25.0233 36.0095 25.0233C34.5966 25.0233 33.3983 24.5039 32.4086 23.4652C31.419 22.4265 30.9241 21.1344 30.9241 19.5953C30.9241 18.0562 31.419 16.7641 32.4086 15.7254C33.3983 14.6867 34.5966 14.1673 36.0095 14.1673C36.713 14.1673 37.3807 14.313 38.0186 14.6043C38.6565 14.8957 39.1692 15.282 39.5508 15.7634L38.6923 16.6755C38.0425 15.8521 37.1542 15.4404 36.0155 15.4404C34.9841 15.4404 34.0958 15.8267 33.3446 16.5931C32.5934 17.3595 32.2178 18.3602 32.2178 19.589C32.2178 20.8177 32.5934 21.8184 33.3446 22.5848C34.0958 23.3512 34.9841 23.7375 36.0155 23.7375C37.1065 23.7375 38.0186 23.3512 38.7519 22.5785C39.2229 22.0781 39.4971 21.3751 39.5746 20.4757H36.0214V19.2343H40.767C40.8147 19.5066 40.8326 19.7663 40.8326 20.0196C40.8206 21.4701 40.4152 22.6228 39.6044 23.4842ZM40.7312 9.47404C40.7312 9.8604 40.7372 10.2468 40.7491 10.6394H40.1589C40.1768 10.1898 40.1887 9.67672 40.1887 9.10669C40.1887 8.56199 40.1768 8.0933 40.1589 7.71328H40.5225C40.5643 7.71328 40.6537 7.71328 40.7908 7.70694C40.9279 7.70061 41.0472 7.70061 41.1664 7.70061C41.8162 7.70061 42.1382 7.93496 42.1382 8.40365C42.1382 8.77734 41.9534 9.03702 41.5837 9.18269V9.21436C41.7268 9.2587 41.852 9.37271 41.9593 9.56905C42.0666 9.76539 42.2097 10.1201 42.3945 10.6331H41.7685C41.6076 10.1011 41.4824 9.77806 41.393 9.65139C41.3035 9.52471 41.1664 9.46771 40.9697 9.46771C40.8862 9.47404 40.8087 9.47404 40.7312 9.47404ZM47.2533 23.9465C46.6035 24.6686 45.7808 25.0296 44.7792 25.0296C43.7777 25.0296 42.9549 24.6686 42.3051 23.9465C41.6553 23.2245 41.3333 22.3251 41.3333 21.2357C41.3333 20.1527 41.6553 19.2469 42.3051 18.5249C42.949 17.8029 43.7777 17.4418 44.7792 17.4418C45.7808 17.4418 46.6035 17.8029 47.2533 18.5249C47.8972 19.2469 48.2251 20.1463 48.2251 21.2357C48.2251 22.3188 47.9032 23.2245 47.2533 23.9465ZM54.5684 23.9465C53.9186 24.6686 53.0959 25.0296 52.0943 25.0296C51.0927 25.0296 50.27 24.6686 49.6202 23.9465C48.9703 23.2245 48.6484 22.3251 48.6484 21.2357C48.6484 20.1527 48.9703 19.2469 49.6202 18.5249C50.264 17.8029 51.0927 17.4418 52.0943 17.4418C53.0959 17.4418 53.9186 17.8029 54.5684 18.5249C55.2123 19.2469 55.5402 20.1463 55.5402 21.2357C55.5402 22.3188 55.2123 23.2245 54.5684 23.9465ZM54.9201 9.53105C54.8546 9.53105 54.8069 9.53105 54.7771 9.52471C54.7771 9.8034 54.783 10.1771 54.8009 10.6394H54.2047C54.2226 10.2088 54.2345 9.69572 54.2345 9.10669C54.2345 8.56833 54.2226 8.09963 54.2047 7.71328H54.5744C54.628 7.71328 54.7294 7.71328 54.8725 7.70694C55.0215 7.70061 55.1467 7.70061 55.26 7.70061C55.5282 7.70061 55.7548 7.76395 55.9396 7.89695C56.1244 8.02363 56.2138 8.21997 56.2138 8.48599C56.2138 8.84701 56.0886 9.10669 55.8383 9.2777C55.5938 9.44871 55.2838 9.53105 54.9201 9.53105ZM62.6883 24.4279C62.6883 25.6503 62.3544 26.575 61.6927 27.2084C61.025 27.8418 60.2142 28.1584 59.2603 28.1584C58.4674 28.1584 57.8235 27.9494 57.3168 27.5251C56.816 27.1007 56.4583 26.6194 56.2377 26.081L57.3883 25.5743C57.5135 25.9607 57.752 26.2837 58.0918 26.5497C58.4316 26.8094 58.8251 26.9424 59.2603 26.9424C59.9519 26.9424 60.4944 26.7207 60.8938 26.2837C61.2933 25.8403 61.49 25.2449 61.49 24.4912V23.8072H61.4363C61.2158 24.1556 60.9057 24.4469 60.5063 24.6812C60.1069 24.9156 59.6538 25.0296 59.153 25.0296C58.2885 25.0296 57.5374 24.6686 56.9114 23.9402C56.2854 23.2118 55.9694 22.3124 55.9694 21.2421C55.9694 20.1653 56.2854 19.2659 56.9114 18.5439C57.5374 17.8155 58.2885 17.4545 59.153 17.4545C59.6538 17.4545 60.1069 17.5685 60.5063 17.8029C60.9057 18.0372 61.2158 18.3286 61.4363 18.6769H61.49V17.6888H62.6943V24.4279H62.6883ZM62.5035 10.2721C62.2412 10.5761 61.9133 10.7281 61.5198 10.7281C61.1502 10.7281 60.8342 10.5888 60.5838 10.3101C60.3334 10.0314 60.2082 9.67672 60.2082 9.25237C60.2082 8.79001 60.3394 8.40998 60.6076 8.10597C60.87 7.80195 61.1979 7.64994 61.5913 7.64994C61.961 7.64994 62.2769 7.78928 62.5273 8.06796C62.7777 8.34665 62.9029 8.70133 62.9029 9.12569C62.9029 9.58805 62.7718 9.96807 62.5035 10.2721ZM65.1326 24.7953H63.8747V14.3953H65.1326V24.7953ZM65.7705 10.6458H65.2459C65.2459 10.5824 65.0492 10.2594 64.6616 9.67039C64.2562 9.04969 64.0237 8.63166 63.9701 8.40365H63.9343C63.9701 8.733 63.988 9.03069 63.988 9.29037C63.988 9.65772 63.9999 10.1137 64.0178 10.6458H63.4991C63.5229 10.1834 63.5289 9.67039 63.5289 9.11302C63.5289 8.56833 63.517 8.09963 63.4991 7.71961H64.1251C64.1251 7.80195 64.298 8.11863 64.6497 8.66967C65.0193 9.2587 65.234 9.65772 65.2876 9.86673H65.3174C65.2816 9.53105 65.2638 9.23336 65.2638 8.96735C65.2638 8.56199 65.2518 8.14397 65.234 7.71961H65.7645C65.7467 8.0933 65.7347 8.55566 65.7347 9.11302C65.7407 9.67672 65.7467 10.1834 65.7705 10.6458ZM72.4179 21.4827H67.1298C67.1656 22.1984 67.3921 22.7685 67.8035 23.1802C68.2208 23.5982 68.7037 23.8072 69.2581 23.8072C70.1584 23.8072 70.7724 23.4018 71.0884 22.5848L72.2092 23.0788C71.9886 23.6299 71.6309 24.0922 71.1301 24.4659C70.6293 24.8396 70.0153 25.0233 69.2879 25.0233C68.2744 25.0233 67.4517 24.6622 66.8198 23.9465C66.1879 23.2308 65.8719 22.3251 65.8719 21.2294C65.8719 20.1907 66.1819 19.3039 66.7959 18.5566C67.41 17.8092 68.197 17.4418 69.1508 17.4418C70.1464 17.4418 70.9394 17.7839 71.5355 18.4742C72.1317 19.1583 72.4298 20.083 72.4298 21.2357L72.4179 21.4827ZM81.6049 19.703C80.9968 20.2857 80.2814 20.5833 79.4527 20.5833H77.378V24.7953H76.1201V14.3953H79.4527C80.2814 14.3953 80.9968 14.6867 81.6049 15.2757C82.213 15.8647 82.5111 16.5995 82.5111 17.4925C82.517 18.3792 82.213 19.1203 81.6049 19.703ZM84.5917 24.7953H83.3338V14.3953H84.5917V24.7953ZM91.2868 24.7953H90.0825V23.8072H90.0288C89.5281 24.6179 88.7948 25.0296 87.829 25.0296C87.1195 25.0296 86.5233 24.8143 86.0464 24.3772C85.5695 23.9402 85.331 23.3638 85.331 22.6481C85.331 21.8754 85.6112 21.2674 86.1776 20.824C86.7439 20.3807 87.4414 20.1653 88.2701 20.1653C89.0094 20.1653 89.6115 20.311 90.0885 20.6023V20.3997C90.0885 19.874 89.9215 19.4559 89.5817 19.1456C89.2419 18.8289 88.8305 18.6706 88.3357 18.6706C87.9721 18.6706 87.6382 18.7656 87.3461 18.9493C87.048 19.1329 86.8453 19.3863 86.738 19.703L85.5873 19.1773C85.7423 18.7529 86.0464 18.3602 86.5055 17.9929C86.9585 17.6318 87.5607 17.4482 88.3119 17.4482C89.1704 17.4482 89.8798 17.7142 90.4462 18.2462C91.0126 18.7782 91.2927 19.532 91.2927 20.4947V24.7953H91.2868ZM94.0232 27.9304H92.7235L94.2796 24.3456L91.5193 17.6825H92.8845L94.8817 22.7938H94.9115L96.8491 17.6825H98.2143L94.0232 27.9304Z" fill="#D7C2FF"/>
</svg>
