<svg width="113" height="71" viewBox="0 0 113 71" fill="none" xmlns="http://www.w3.org/2000/svg">
<path d="M21.4282 47.5486L12.7593 55.7457V70.076H21.4282V47.5486Z" fill="#C08ACF"/>
<path d="M30.0971 42.1821H27.2075L21.4282 47.5486V70.076H30.0971V42.1821Z" fill="#280074"/>
<path d="M38.7661 42.1821H30.0972V70.076H38.7661V42.1821Z" fill="#C08ACF"/>
<path d="M47.3759 42.1821H38.707V70.076H47.3759V42.1821Z" fill="#280074"/>
<path d="M55.9859 35.4003L48.7913 42.1821H47.376V70.0759H55.9859V35.4003Z" fill="#C08ACF"/>
<path d="M64.6548 28.5594H63.2394L55.9858 35.4002V70.0759H64.6548V28.5594Z" fill="#280074"/>
<path d="M73.3237 28.5594H64.6548V70.0759H73.3237V28.5594Z" fill="#C08ACF"/>
<path d="M81.9926 28.5594H73.3237V70.0759H81.9926V28.5594Z" fill="#280074"/>
<path d="M90.6025 23.134L84.7643 28.5595H81.9336V70.0759H90.6025V23.134Z" fill="#C08ACF"/>
<path d="M99.2125 14.9958L90.6025 23.134V70.0759H99.2125V14.9958Z" fill="#280074"/>
<path d="M103.694 10.8088L84.8232 28.5595H63.2394L48.7912 42.182H27.2073L9.81055 58.5763" stroke="#4D0063" stroke-miterlimit="10"/>
<path d="M93.9048 12.519L106.171 8.50891L101.217 19.5367L101.335 13.1087L93.9048 12.519Z" fill="#4D0063"/>
<path d="M46.2554 23.37C45.7246 26.1417 44.7811 29.0313 43.8965 31.3312C44.4272 31.3312 45.4298 31.3902 45.9605 32.4517C46.6682 33.867 48.0245 36.8746 48.9091 38.8207H49.6758V30.4467C49.6758 25.552 47.14 23.7828 46.2554 23.37Z" fill="#280074" stroke="#4D0063" stroke-miterlimit="10"/>
<path d="M29.5664 23.37C30.0972 26.1417 31.0407 29.0313 31.9253 31.3312C31.3946 31.3312 30.392 31.3902 29.8613 32.4517C29.1536 33.867 27.7973 36.8746 26.9127 38.8207H26.146V30.4467C26.0871 25.552 28.6229 23.7828 29.5664 23.37Z" fill="#280074" stroke="#4D0063" stroke-miterlimit="10"/>
<path d="M29.5664 23.37C30.0972 26.1417 31.0407 29.0313 31.9253 31.3312C31.3946 31.3312 30.392 31.3902 29.8613 32.4517C29.1536 33.867 27.7973 36.8746 26.9127 38.8207H26.146V30.4467C26.0871 25.552 28.6229 23.7828 29.5664 23.37Z" fill="#280074"/>
<path d="M36.2301 1.49133C33.7533 4.67583 28.9766 11.6345 28.9766 19.7137C28.9766 26.7314 33.8713 36.2849 33.8713 36.2849H37.8224H41.7146C41.7146 36.2849 46.6092 26.7314 46.6092 19.7137C46.6092 11.6935 41.8915 4.7348 39.3557 1.5503C38.4711 0.370855 37.1737 0.370855 36.2301 1.49133Z" fill="white" stroke="#4D0063" stroke-miterlimit="10"/>
<path d="M41.8914 36.2849H33.9302V38.1131H41.8914V36.2849Z" fill="#280074" stroke="#4D0063" stroke-miterlimit="10"/>
<path d="M41.8917 38.113C41.8917 38.113 45.9018 42.1821 44.4275 47.8434C44.4275 47.8434 43.484 44.9538 42.1866 43.7154C42.1866 43.7154 43.6019 46.605 40.8892 50.5562C38.1765 54.5073 35.9355 56.6893 37.3509 58.4584C37.3509 58.4584 31.5716 49.7306 34.4612 43.9513C34.4612 43.9513 32.2203 47.5486 32.3382 49.9664C32.3382 49.9664 30.687 42.8898 33.9305 38.172H41.8917V38.113Z" fill="#EB5757" stroke="#4D0063" stroke-miterlimit="10"/>
<path d="M37.7636 54.8611V38.113H33.8714C30.6279 42.8898 32.2792 49.9075 32.2792 49.9075C32.1022 47.5486 34.4022 43.8923 34.4022 43.8923C31.8664 48.9639 35.9354 56.2765 37.0559 58.0456C36.5841 57.1611 36.9969 56.1585 37.7636 54.8611Z" fill="#EB5757"/>
<path d="M35.2278 38.113C35.2278 38.113 33.6355 39.4104 34.0483 42.0052C34.0483 42.0052 34.2842 41.1206 35.4637 40.5899C35.4637 40.5899 34.8739 45.3666 36.761 47.9614C36.761 47.9614 36.879 44.0692 38.4712 43.4795C40.1225 42.8898 41.7737 40.7078 40.8301 38.113H35.2278Z" fill="#EB7A2C" stroke="#4D0063" stroke-miterlimit="10"/>
<path d="M37.7636 38.113H35.2278C35.2278 38.113 33.6355 39.4104 34.0483 42.0052C34.0483 42.0052 34.2842 41.1206 35.4637 40.5899C35.4637 40.5899 34.8739 45.3666 36.761 47.9614C36.761 47.9614 36.82 45.3076 37.7636 44.0692V38.113Z" fill="#EB7A2C"/>
<path d="M37.8224 0.665649C37.2916 0.724622 36.8199 0.96051 36.3481 1.49126C33.8123 4.67576 28.9766 11.6345 28.9766 19.7137C28.9766 26.7314 33.9302 36.2849 33.9302 36.2849H37.8224V0.665649Z" fill="#C3C5CA"/>
<path d="M37.8225 6.03212C39.3558 6.03212 40.7121 5.67829 41.8916 5.02959C41.007 3.61426 40.1224 2.43482 39.4147 1.55023C38.4712 0.370788 37.2328 0.370788 36.2892 1.55023C35.5816 2.43482 34.697 3.61426 33.7534 5.08856C34.8739 5.67829 36.2892 6.03212 37.8225 6.03212Z" fill="#EB5757" stroke="#4D0063" stroke-miterlimit="10"/>
<path d="M37.5865 0.665649C37.5275 0.665649 37.5275 0.665649 37.5865 0.665649C37.5275 0.665649 37.5275 0.665649 37.4686 0.665649H37.4096H37.3506H37.2916H37.2327H37.1737H37.1147H37.0558H36.9968H36.9378H36.8788H36.8199H36.7609C36.7609 0.665649 36.7019 0.665649 36.7019 0.724622C36.7019 0.724622 36.6429 0.724622 36.6429 0.783594C36.6429 0.783594 36.6429 0.783594 36.584 0.842566C36.584 0.842566 36.525 0.842566 36.525 0.901538C36.525 0.901538 36.466 0.901538 36.466 0.96051C36.466 0.96051 36.4071 0.96051 36.4071 1.01948C36.4071 1.01948 36.3481 1.01948 36.3481 1.07845C36.3481 1.07845 36.2891 1.07845 36.2891 1.13743L36.2301 1.1964C36.2301 1.1964 36.2301 1.1964 36.1712 1.25537L36.1122 1.31434C36.1122 1.31434 36.1122 1.31434 36.0532 1.37332L35.9943 1.43229C35.9943 1.43229 35.9943 1.43229 35.9943 1.49126C35.9353 1.55023 35.9353 1.55023 35.8763 1.6092C35.8763 1.6092 35.8763 1.6092 35.8763 1.66818C35.8763 1.72715 35.8173 1.72715 35.8173 1.78612L35.7584 1.84509C35.7584 1.90407 35.6994 1.90407 35.6994 1.96304L35.6404 2.02201C35.6404 2.02201 35.5814 2.08098 35.5814 2.13995C35.5814 2.13995 35.5225 2.19893 35.5225 2.2579C35.5225 2.31687 35.4635 2.31687 35.4635 2.37584C35.4635 2.43482 35.4045 2.43482 35.4045 2.49379L35.3456 2.55276C35.3456 2.61173 35.2866 2.61173 35.2866 2.6707L35.2276 2.72968C35.1686 2.78865 35.1686 2.84762 35.1097 2.90659C35.1097 2.90659 35.1097 2.96557 35.0507 2.96557C34.9917 3.02454 34.9328 3.08351 34.8738 3.20145C34.8738 3.20145 34.8738 3.20145 34.8738 3.26043C34.8148 3.3194 34.8148 3.37837 34.7558 3.43734C34.9328 3.3194 34.8738 3.3194 34.8738 3.3194C34.8148 3.37837 34.8148 3.43734 34.7558 3.49632L34.6969 3.55529C34.6379 3.61426 34.6379 3.67323 34.5789 3.7322L34.5199 3.79118C34.461 3.85015 34.461 3.90912 34.402 3.96809L34.343 4.02706C34.2841 4.08604 34.2841 4.14501 34.2251 4.20398C34.2251 4.20398 34.2251 4.26295 34.1661 4.26295C34.1071 4.32193 34.1071 4.3809 34.0482 4.43987C34.0482 4.43987 34.0482 4.43987 34.0482 4.49884C33.9302 4.67576 33.8123 4.85268 33.6943 5.02959C34.8148 5.61931 36.1712 5.97315 37.6455 6.03212V0.665649C37.6455 0.665649 37.6455 0.665649 37.5865 0.665649Z" fill="#EB5757"/>
<path d="M43.4249 18.4753C43.4249 21.6008 40.8891 24.0777 37.8226 24.0777C34.697 24.0777 32.2202 21.5419 32.2202 18.4753C32.2202 15.3498 34.756 12.873 37.8226 12.873C40.8891 12.814 43.4249 15.3498 43.4249 18.4753Z" fill="#EB5757" stroke="#4D0063" stroke-miterlimit="10"/>
<path d="M37.8225 12.814C34.6969 12.814 32.1611 15.3498 32.1611 18.4163C32.1611 21.5418 34.6969 24.0187 37.7635 24.0187V12.814H37.8225Z" fill="#EB5757"/>
<path d="M41.9507 18.4752C41.9507 20.7752 40.0636 22.6623 37.7637 22.6623C35.4638 22.6623 33.5767 20.7752 33.5767 18.4752C33.5767 16.1753 35.4638 14.2882 37.7637 14.2882C40.1226 14.2882 41.9507 16.1753 41.9507 18.4752Z" fill="#280074" stroke="#4D0063" stroke-miterlimit="10"/>
<path d="M37.8228 14.2882C35.5229 14.2882 33.6357 16.1753 33.6357 18.4752C33.6357 20.7752 35.5229 22.6623 37.8228 22.6623V14.2882Z" fill="#280074"/>
<path d="M37.4687 40.2361C37.5277 40.4719 37.5277 40.7668 37.5867 41.0027H38.2354C38.2943 40.7668 38.3533 40.4719 38.3533 40.2361C38.4713 39.5284 38.5892 38.7617 38.6482 38.0541C38.7661 36.5798 38.8251 35.1644 38.8251 33.6901C38.8251 32.2158 38.7661 30.8005 38.6482 29.3262C38.5892 28.6185 38.4713 27.8519 38.3533 27.1442C38.2943 26.8494 38.2354 26.5545 38.1764 26.2596H37.5867C37.5277 26.5545 37.4687 26.8494 37.4098 27.1442C37.2918 27.8519 37.1739 28.6185 37.1149 29.3262C36.997 30.8005 36.938 32.2158 36.938 33.6901C36.938 35.1644 36.997 36.5798 37.1149 38.0541C37.2328 38.8207 37.3508 39.5284 37.4687 40.2361Z" fill="#280074" stroke="#4D0063" stroke-miterlimit="10"/>
<path d="M37.7636 26.2596H37.5867C37.5277 26.5545 37.4687 26.8494 37.4098 27.1442C37.2918 27.8519 37.1739 28.6185 37.1149 29.3262C36.997 30.8005 36.938 32.2158 36.938 33.6901C36.938 35.1644 36.997 36.5798 37.1149 38.0541C37.1739 38.7617 37.2918 39.5284 37.4098 40.2361C37.4687 40.4719 37.4687 40.7668 37.5277 41.0027H37.7046V26.2596H37.7636Z" fill="#280074"/>
<path d="M0.669922 70.0759H112.894" stroke="#4D0063" stroke-miterlimit="10"/>
</svg>
