<svg width="67" height="72" viewBox="0 0 67 72" fill="none" xmlns="http://www.w3.org/2000/svg">
<path d="M66.0514 49.7474C66.0514 61.4219 56.5894 70.8839 44.9148 70.8839C33.2403 70.8839 23.7783 61.4219 23.7783 49.7474C23.7783 38.0729 33.2403 28.6109 44.9148 28.6109C56.5894 28.5638 66.0514 38.0729 66.0514 49.7474Z" fill="#C08ACF" stroke="#280074" stroke-miterlimit="10"/>
<path d="M62.2383 49.7474C62.2383 59.3036 54.4709 67.0709 44.9148 67.0709C35.3586 67.0709 27.5913 59.3036 27.5913 49.7474C27.5913 40.1913 35.3586 32.424 44.9148 32.424C54.4709 32.424 62.2383 40.1442 62.2383 49.7474Z" fill="#C08ACF" stroke="#280074" stroke-miterlimit="10"/>
<path d="M44.8678 28.5638C33.1932 28.6109 23.7783 38.0729 23.7783 49.7474C23.7783 61.422 33.2403 70.884 44.8678 70.884V28.5638Z" fill="#C08ACF"/>
<path d="M66.0514 49.7474C66.0514 61.4219 56.5894 70.8839 44.9148 70.8839C33.2403 70.8839 23.7783 61.4219 23.7783 49.7474C23.7783 38.0729 33.2403 28.6109 44.9148 28.6109C56.5894 28.5638 66.0514 38.0729 66.0514 49.7474Z" stroke="#280074" stroke-miterlimit="10"/>
<path d="M62.2383 49.7474C62.2383 59.3036 54.4709 67.0709 44.9148 67.0709C35.3586 67.0709 27.5913 59.3036 27.5913 49.7474C27.5913 40.1913 35.3586 32.424 44.9148 32.424C54.4709 32.424 62.2383 40.1442 62.2383 49.7474Z" stroke="#280074" stroke-miterlimit="10"/>
<path d="M44.1616 28.5638V32.424" stroke="#280074" stroke-miterlimit="10"/>
<path d="M44.1616 67.0709V70.884" stroke="#280074" stroke-miterlimit="10"/>
<path d="M44.1616 28.5638V32.424" stroke="#280074" stroke-miterlimit="10"/>
<path d="M44.1616 67.0709V70.884" stroke="#280074" stroke-miterlimit="10"/>
<path d="M66.6163 49.7474H62.8032" stroke="#280074" stroke-miterlimit="10"/>
<path d="M28.1563 49.7474H24.3433" stroke="#280074" stroke-miterlimit="10"/>
<path d="M66.6163 49.7474H62.8032" stroke="#280074" stroke-miterlimit="10"/>
<path d="M28.1563 49.7474H24.3433" stroke="#280074" stroke-miterlimit="10"/>
<path d="M60.4491 34.7777L57.7188 37.508" stroke="#280074" stroke-miterlimit="10"/>
<path d="M33.2401 61.9868L30.5098 64.7171" stroke="#280074" stroke-miterlimit="10"/>
<path d="M60.4491 34.7777L57.7188 37.508" stroke="#280074" stroke-miterlimit="10"/>
<path d="M33.2401 61.9868L30.5098 64.7171" stroke="#280074" stroke-miterlimit="10"/>
<path d="M60.4491 64.7171L57.7188 61.9868" stroke="#280074" stroke-miterlimit="10"/>
<path d="M33.2401 37.508L30.5098 34.7777" stroke="#280074" stroke-miterlimit="10"/>
<path d="M60.4491 64.7171L57.7188 61.9868" stroke="#280074" stroke-miterlimit="10"/>
<path d="M33.2401 37.508L30.5098 34.7777" stroke="#280074" stroke-miterlimit="10"/>
<path d="M56.1185 31.4354L54.1885 34.7307" stroke="#280074" stroke-miterlimit="10"/>
<path d="M36.7709 64.7172L34.8408 68.0124" stroke="#280074" stroke-miterlimit="10"/>
<path d="M56.1185 31.4354L54.1885 34.7307" stroke="#280074" stroke-miterlimit="10"/>
<path d="M36.7709 64.7172L34.8408 68.0124" stroke="#280074" stroke-miterlimit="10"/>
<path d="M63.7915 60.3393L60.4492 58.4563" stroke="#280074" stroke-miterlimit="10"/>
<path d="M30.5098 41.0386L27.1675 39.1085" stroke="#280074" stroke-miterlimit="10"/>
<path d="M63.7915 60.3393L60.4492 58.4563" stroke="#280074" stroke-miterlimit="10"/>
<path d="M30.5098 41.0386L27.1675 39.1085" stroke="#280074" stroke-miterlimit="10"/>
<path d="M65.3452 44.2867L61.6733 45.2753" stroke="#280074" stroke-miterlimit="10"/>
<path d="M28.1562 54.1724L24.4844 55.1609" stroke="#280074" stroke-miterlimit="10"/>
<path d="M65.3452 44.2867L61.6733 45.2753" stroke="#280074" stroke-miterlimit="10"/>
<path d="M28.1562 54.1724L24.4844 55.1609" stroke="#280074" stroke-miterlimit="10"/>
<path d="M49.575 70.1778L48.5864 66.506" stroke="#280074" stroke-miterlimit="10"/>
<path d="M39.6895 32.9888L38.748 29.2699" stroke="#280074" stroke-miterlimit="10"/>
<path d="M49.575 70.1778L48.5864 66.506" stroke="#280074" stroke-miterlimit="10"/>
<path d="M39.6895 32.9888L38.748 29.2699" stroke="#280074" stroke-miterlimit="10"/>
<path d="M51.364 29.4111L50.2812 33.083" stroke="#280074" stroke-miterlimit="10"/>
<path d="M40.6779 66.3647L39.5952 70.0836" stroke="#280074" stroke-miterlimit="10"/>
<path d="M51.364 29.4111L50.2812 33.083" stroke="#280074" stroke-miterlimit="10"/>
<path d="M40.6779 66.3647L39.5952 70.0836" stroke="#280074" stroke-miterlimit="10"/>
<path d="M65.8159 55.5847L62.144 54.5491" stroke="#280074" stroke-miterlimit="10"/>
<path d="M28.8154 44.9458L25.1436 43.863" stroke="#280074" stroke-miterlimit="10"/>
<path d="M65.8159 55.5847L62.144 54.5491" stroke="#280074" stroke-miterlimit="10"/>
<path d="M28.8154 44.9458L25.1436 43.863" stroke="#280074" stroke-miterlimit="10"/>
<path d="M63.4151 39.5322L60.0728 41.3681" stroke="#280074" stroke-miterlimit="10"/>
<path d="M29.7568 58.1267L26.4146 59.9626" stroke="#280074" stroke-miterlimit="10"/>
<path d="M63.4151 39.5322L60.0728 41.3681" stroke="#280074" stroke-miterlimit="10"/>
<path d="M29.7568 58.1267L26.4146 59.9626" stroke="#280074" stroke-miterlimit="10"/>
<path d="M55.6953 68.2477L53.8594 64.9054" stroke="#280074" stroke-miterlimit="10"/>
<path d="M37.1006 34.5893L35.2646 31.2" stroke="#280074" stroke-miterlimit="10"/>
<path d="M55.6953 68.2477L53.8594 64.9054" stroke="#280074" stroke-miterlimit="10"/>
<path d="M37.1006 34.5893L35.2646 31.2" stroke="#280074" stroke-miterlimit="10"/>
<path d="M29.9453 50.5006C29.9453 42.2155 36.6299 35.5309 44.9151 35.5309" stroke="white" stroke-miterlimit="10" stroke-linecap="round" stroke-linejoin="round"/>
<path d="M47.1748 35.5309C47.1748 35.5309 49.9522 35.625 52.6355 37.508" stroke="white" stroke-miterlimit="10" stroke-linecap="round" stroke-linejoin="round"/>
<path d="M52.1644 51.4892C51.5524 50.736 50.6109 50.2182 49.387 49.9357C50.2343 49.6533 50.8463 49.2767 51.27 48.7589C51.929 48.0057 52.2586 47.1113 52.2586 46.0756C52.2586 44.8517 51.7878 43.816 50.8934 42.9687C50.1873 42.3096 49.2458 41.933 48.116 41.7918V40.1913H46.1859V41.6977H44.2088V40.1913H42.2787V41.6977H36.771V59.3036H42.2787V60.8571H44.2088V59.3036H46.1859V60.8571H48.116V59.1624C48.3043 59.1624 48.4455 59.1153 48.6338 59.1153C49.5753 58.9741 50.2343 58.7858 50.7051 58.5504C51.4583 58.1267 52.0232 57.5618 52.4469 56.8086C52.8705 56.1025 53.1059 55.2552 53.1059 54.3608C53.0588 53.1368 52.7764 52.2424 52.1644 51.4892ZM42.2787 45.2283H44.6795C45.4798 45.2283 46.0918 45.3695 46.4213 45.6519C46.7508 45.9344 46.9391 46.3581 46.9391 46.8759C46.9391 47.4408 46.7508 47.8645 46.4213 48.1469C46.0918 48.4293 45.4798 48.5706 44.6325 48.5706H42.2787V45.2283ZM42.2787 55.4905V51.9599H45.0561C45.9976 51.9599 46.6567 52.1012 47.0333 52.4307C47.4099 52.7602 47.5982 53.1839 47.5982 53.7017C47.5982 54.2666 47.4099 54.6903 47.0333 55.0198C46.6567 55.3493 45.9976 55.5376 45.0561 55.5376H42.2787V55.4905Z" fill="#280074"/>
<path d="M43.5969 22.6796C43.5969 34.4482 34.0407 44.0044 22.2721 44.0044C10.5034 44.0044 0.947266 34.4482 0.947266 22.6796C0.947266 10.9109 10.5034 1.35474 22.2721 1.35474C34.0407 1.35474 43.5969 10.9109 43.5969 22.6796Z" fill="#C08ACF" stroke="#280074" stroke-miterlimit="10"/>
<path d="M39.737 22.6795C39.737 32.3298 31.9226 40.1442 22.2723 40.1442C12.622 40.1442 4.80762 32.3298 4.80762 22.6795C4.80762 13.0292 12.622 5.21484 22.2723 5.21484C31.9226 5.21484 39.737 13.0292 39.737 22.6795Z" fill="#C08ACF" stroke="#280074" stroke-miterlimit="10"/>
<path d="M22.225 1.35474C10.4563 1.40181 0.947266 10.9109 0.947266 22.6796C0.947266 34.4482 10.4563 43.9573 22.225 44.0044V1.35474Z" fill="#C08ACF"/>
<path d="M43.5969 22.6796C43.5969 34.4482 34.0407 44.0044 22.2721 44.0044C10.5034 44.0044 0.947266 34.4482 0.947266 22.6796C0.947266 10.9109 10.5034 1.35474 22.2721 1.35474C34.0407 1.35474 43.5969 10.9109 43.5969 22.6796Z" stroke="#280074" stroke-miterlimit="10"/>
<path d="M39.737 22.6795C39.737 32.3298 31.9226 40.1442 22.2723 40.1442C12.622 40.1442 4.80762 32.3298 4.80762 22.6795C4.80762 13.0292 12.622 5.21484 22.2723 5.21484C31.9226 5.21484 39.737 13.0292 39.737 22.6795Z" stroke="#280074" stroke-miterlimit="10"/>
<path d="M21.519 1.35474V5.21486" stroke="#280074" stroke-miterlimit="10"/>
<path d="M21.519 40.1442V44.0043" stroke="#280074" stroke-miterlimit="10"/>
<path d="M21.519 1.35474V5.21486" stroke="#280074" stroke-miterlimit="10"/>
<path d="M21.519 40.1442V44.0043" stroke="#280074" stroke-miterlimit="10"/>
<path d="M44.1619 22.6794H40.3018" stroke="#280074" stroke-miterlimit="10"/>
<path d="M5.37233 22.6794H1.51221" stroke="#280074" stroke-miterlimit="10"/>
<path d="M44.1619 22.6794H40.3018" stroke="#280074" stroke-miterlimit="10"/>
<path d="M5.37233 22.6794H1.51221" stroke="#280074" stroke-miterlimit="10"/>
<path d="M37.9007 7.6156L35.1704 10.3459" stroke="#280074" stroke-miterlimit="10"/>
<path d="M10.5033 35.0131L7.77295 37.7434" stroke="#280074" stroke-miterlimit="10"/>
<path d="M37.9007 7.6156L35.1704 10.3459" stroke="#280074" stroke-miterlimit="10"/>
<path d="M10.5033 35.0131L7.77295 37.7434" stroke="#280074" stroke-miterlimit="10"/>
<path d="M37.9007 37.7434L35.1704 35.0131" stroke="#280074" stroke-miterlimit="10"/>
<path d="M10.5033 10.3459L7.77295 7.6156" stroke="#280074" stroke-miterlimit="10"/>
<path d="M37.9007 37.7434L35.1704 35.0131" stroke="#280074" stroke-miterlimit="10"/>
<path d="M10.5033 10.3459L7.77295 7.6156" stroke="#280074" stroke-miterlimit="10"/>
<path d="M33.5228 4.2262L31.5928 7.5685" stroke="#280074" stroke-miterlimit="10"/>
<path d="M14.0809 37.7904L12.1509 41.0856" stroke="#280074" stroke-miterlimit="10"/>
<path d="M33.5228 4.2262L31.5928 7.5685" stroke="#280074" stroke-miterlimit="10"/>
<path d="M14.0809 37.7904L12.1509 41.0856" stroke="#280074" stroke-miterlimit="10"/>
<path d="M41.2905 33.3654L37.9482 31.4353" stroke="#280074" stroke-miterlimit="10"/>
<path d="M7.72609 13.9235L4.38379 11.9464" stroke="#280074" stroke-miterlimit="10"/>
<path d="M41.2905 33.3654L37.9482 31.4353" stroke="#280074" stroke-miterlimit="10"/>
<path d="M7.72609 13.9235L4.38379 11.9464" stroke="#280074" stroke-miterlimit="10"/>
<path d="M42.8434 17.2189L39.1245 18.2074" stroke="#280074" stroke-miterlimit="10"/>
<path d="M5.37222 27.1516L1.65332 28.1402" stroke="#280074" stroke-miterlimit="10"/>
<path d="M42.8434 17.2189L39.1245 18.2074" stroke="#280074" stroke-miterlimit="10"/>
<path d="M5.37222 27.1516L1.65332 28.1402" stroke="#280074" stroke-miterlimit="10"/>
<path d="M26.9798 43.2511L25.9912 39.5322" stroke="#280074" stroke-miterlimit="10"/>
<path d="M16.9998 5.77969L16.0112 2.06079" stroke="#280074" stroke-miterlimit="10"/>
<path d="M26.9798 43.2511L25.9912 39.5322" stroke="#280074" stroke-miterlimit="10"/>
<path d="M16.9998 5.77969L16.0112 2.06079" stroke="#280074" stroke-miterlimit="10"/>
<path d="M28.7688 2.20203L27.686 5.87385" stroke="#280074" stroke-miterlimit="10"/>
<path d="M17.9885 39.4381L16.9058 43.157" stroke="#280074" stroke-miterlimit="10"/>
<path d="M28.7688 2.20203L27.686 5.87385" stroke="#280074" stroke-miterlimit="10"/>
<path d="M17.9885 39.4381L16.9058 43.157" stroke="#280074" stroke-miterlimit="10"/>
<path d="M43.3141 28.5638L39.5952 27.5282" stroke="#280074" stroke-miterlimit="10"/>
<path d="M6.07827 17.8308L2.35938 16.748" stroke="#280074" stroke-miterlimit="10"/>
<path d="M43.3141 28.5638L39.5952 27.5282" stroke="#280074" stroke-miterlimit="10"/>
<path d="M6.07827 17.8308L2.35938 16.748" stroke="#280074" stroke-miterlimit="10"/>
<path d="M40.9138 12.3701L37.5244 14.2531" stroke="#280074" stroke-miterlimit="10"/>
<path d="M6.97287 31.1058L3.5835 32.9888" stroke="#280074" stroke-miterlimit="10"/>
<path d="M40.9138 12.3701L37.5244 14.2531" stroke="#280074" stroke-miterlimit="10"/>
<path d="M6.97287 31.1058L3.5835 32.9888" stroke="#280074" stroke-miterlimit="10"/>
<path d="M33.1467 41.321L31.2637 37.9316" stroke="#280074" stroke-miterlimit="10"/>
<path d="M14.4108 7.38022L12.5278 3.99084" stroke="#280074" stroke-miterlimit="10"/>
<path d="M33.1467 41.321L31.2637 37.9316" stroke="#280074" stroke-miterlimit="10"/>
<path d="M14.4108 7.38022L12.5278 3.99084" stroke="#280074" stroke-miterlimit="10"/>
<path d="M7.16113 23.4327C7.16113 15.1004 13.8928 8.36877 22.225 8.36877" stroke="white" stroke-miterlimit="10" stroke-linecap="round" stroke-linejoin="round"/>
<path d="M24.5317 8.36877C24.5317 8.36877 27.3562 8.46292 30.0395 10.3459" stroke="white" stroke-miterlimit="10" stroke-linecap="round" stroke-linejoin="round"/>
<path d="M29.6157 18.584L24.8611 19.3372C24.6258 18.7253 24.3904 18.3016 24.2021 18.0662C24.0138 17.8308 23.6843 17.5955 23.2606 17.3601V21.079C25.8497 21.7851 27.5915 22.4912 28.4388 23.2915C29.5686 24.3271 30.1806 25.6452 30.1806 27.1987C30.1806 28.1402 29.9923 28.9875 29.5686 29.7407C29.1449 30.4939 28.6271 31.153 27.9681 31.6708C27.309 32.1886 26.65 32.5652 25.8968 32.8006C25.1906 33.036 24.2962 33.1772 23.2135 33.2243V35.6251H21.3305V33.2243C20.0595 33.1301 19.0709 32.8947 18.2707 32.6123C17.4704 32.3298 16.8114 31.9062 16.2465 31.3883C15.7757 30.8705 15.305 30.3056 15.0225 29.6937C14.7401 29.0817 14.5047 28.3756 14.3164 27.5282L19.4946 26.9163C19.6358 27.7636 19.8712 28.3756 20.1066 28.7522C20.389 29.1288 20.8127 29.4583 21.3776 29.7407V25.2216C19.6358 24.7508 18.4119 24.3271 17.7058 23.9976C16.9997 23.6681 16.3877 23.1032 15.8228 22.3029C15.305 21.5497 15.0225 20.6082 15.0225 19.4785C15.0225 17.9721 15.5403 16.7011 16.6231 15.6654C17.7058 14.6298 19.2592 14.0649 21.3776 13.9707V12.6997H23.2606V13.9707C25.1906 14.1119 26.65 14.5356 27.6385 15.3359C28.6742 16.1362 29.3332 17.2189 29.6157 18.584ZM21.4247 17.2659C20.8598 17.4542 20.4832 17.6896 20.2949 17.925C20.0595 18.2074 19.9654 18.4899 19.9654 18.8665C19.9654 19.2431 20.0595 19.5726 20.2949 19.8551C20.5303 20.1375 20.9069 20.3729 21.4247 20.5612V17.2659ZM23.2606 29.882C23.9667 29.7407 24.5316 29.4583 24.8611 29.0817C25.1906 28.7051 25.3789 28.2814 25.3789 27.8107C25.3789 27.387 25.2377 27.0575 24.9553 26.6809C24.6728 26.3514 24.1079 26.0218 23.3077 25.7394V29.882H23.2606Z" fill="#280074"/>
<path d="M44.4443 7.42725C55.1774 11.4286 63.1801 21.3143 64.2157 33.5066" stroke="#280074" stroke-miterlimit="10"/>
<path d="M26.2734 65.7999C13.9399 62.6929 4.3837 52.1011 3.25391 38.7319" stroke="#280074" stroke-miterlimit="10"/>
<path d="M20.7184 58.4562L29.898 67.165L18.0352 68.0594L23.637 65.1408L20.7184 58.4562Z" fill="#280074"/>
<path d="M48.3042 15.4771L40.584 5.40308L52.4468 6.39164L46.4683 8.36878L48.3042 15.4771Z" fill="#280074"/>
</svg>
