<svg width="27" height="32" viewBox="0 0 27 32" fill="none" xmlns="http://www.w3.org/2000/svg">
<path d="M6.86287 15.158C6.86287 10.256 10.8171 6.30177 15.7191 6.26909L16.5361 2.707C16.2746 2.67432 16.0132 2.67432 15.7518 2.67432C8.88902 2.67432 3.30078 8.26255 3.30078 15.1253C3.30078 18.1645 4.37921 20.9423 6.20928 23.0992L8.66026 20.4194C7.54915 19.0142 6.86287 17.1841 6.86287 15.158Z" fill="url(#paint0_linear_30_6145)"/>
<path d="M21.7322 21.7266C20.1636 23.1645 18.072 24.0469 15.7518 24.0469C13.2681 24.0469 11.0132 23.0011 9.37924 21.3671L6.96094 24.0142C9.21584 26.2691 12.3204 27.6416 15.7518 27.6416C19.0851 27.6416 22.1243 26.3344 24.3466 24.1776L21.7322 21.7266Z" fill="url(#paint1_linear_30_6145)"/>
<path d="M17.6798 2.87039L16.8955 6.36712C18.7583 6.59588 20.4249 7.41288 21.7321 8.62203L24.6079 6.43248C22.7779 4.56974 20.3596 3.29523 17.6798 2.87039Z" fill="url(#paint2_linear_30_6145)"/>
<path d="M12.5165 8.52399C10.0328 9.73314 8.3335 12.2822 8.3335 15.2233C8.3335 18.1645 10.0328 20.7135 12.5165 21.9227" stroke="url(#paint3_linear_30_6145)" stroke-miterlimit="10"/>
<path d="M12.5163 10.1907C13.4367 10.1907 14.1829 9.44447 14.1829 8.524C14.1829 7.60352 13.4367 6.85733 12.5163 6.85733C11.5958 6.85733 10.8496 7.60352 10.8496 8.524C10.8496 9.44447 11.5958 10.1907 12.5163 10.1907Z" fill="url(#paint4_radial_30_6145)"/>
<path d="M11.7319 8.52397C11.7319 8.94881 12.0914 9.30828 12.5162 9.30828C12.9411 9.30828 13.3006 8.94881 13.3006 8.52397C13.3006 8.09913 12.9411 7.73965 12.5162 7.73965C12.0587 7.73965 11.7319 8.09913 11.7319 8.52397Z" fill="url(#paint5_linear_30_6145)"/>
<path d="M12.5163 23.1645C13.4367 23.1645 14.1829 22.4183 14.1829 21.4978C14.1829 20.5774 13.4367 19.8312 12.5163 19.8312C11.5958 19.8312 10.8496 20.5774 10.8496 21.4978C10.8496 22.4183 11.5958 23.1645 12.5163 23.1645Z" fill="url(#paint6_radial_30_6145)"/>
<path d="M11.7319 21.4978C11.7319 21.9227 12.0914 22.2822 12.5162 22.2822C12.9411 22.2822 13.3006 21.9227 13.3006 21.4978C13.3006 21.073 12.9411 20.7135 12.5162 20.7135C12.0587 20.7135 11.7319 21.073 11.7319 21.4978Z" fill="url(#paint7_linear_30_6145)"/>
<path d="M24.7062 26.073C22.2552 28.0991 19.1506 29.2756 15.752 29.2756" stroke="url(#paint8_linear_30_6145)" stroke-miterlimit="10"/>
<path d="M5.55566 5.48477C8.10468 2.77235 11.7321 1.10568 15.7517 1.10568C19.1504 1.10568 22.2877 2.31483 24.706 4.3083" stroke="url(#paint9_linear_30_6145)" stroke-miterlimit="10"/>
<path d="M1.6665 15.1906C1.6665 12.3148 2.54886 9.63509 4.01945 7.38019" stroke="url(#paint10_linear_30_6145)" stroke-miterlimit="10"/>
<path d="M13.268 29.0795C7.38563 28.0338 2.77779 23.3606 1.83008 17.4456" stroke="url(#paint11_linear_30_6145)" stroke-miterlimit="10"/>
<path d="M24.7057 27.805C25.6262 27.805 26.3724 27.0589 26.3724 26.1384C26.3724 25.2179 25.6262 24.4717 24.7057 24.4717C23.7853 24.4717 23.0391 25.2179 23.0391 26.1384C23.0391 27.0589 23.7853 27.805 24.7057 27.805Z" fill="url(#paint12_radial_30_6145)"/>
<path d="M24.7062 26.9227C25.1394 26.9227 25.4905 26.5715 25.4905 26.1383C25.4905 25.7052 25.1394 25.354 24.7062 25.354C24.273 25.354 23.9219 25.7052 23.9219 26.1383C23.9219 26.5715 24.273 26.9227 24.7062 26.9227Z" fill="url(#paint13_linear_30_6145)"/>
<path d="M16.1437 31.1057C17.0642 31.1057 17.8104 30.3595 17.8104 29.439C17.8104 28.5186 17.0642 27.7724 16.1437 27.7724C15.2232 27.7724 14.4771 28.5186 14.4771 29.439C14.4771 30.3595 15.2232 31.1057 16.1437 31.1057Z" fill="url(#paint14_radial_30_6145)"/>
<path d="M16.1437 30.2233C16.5769 30.2233 16.928 29.8722 16.928 29.439C16.928 29.0058 16.5769 28.6547 16.1437 28.6547C15.7105 28.6547 15.3594 29.0058 15.3594 29.439C15.3594 29.8722 15.7105 30.2233 16.1437 30.2233Z" fill="url(#paint15_linear_30_6145)"/>
<path d="M13.0392 30.7462C13.9597 30.7462 14.7059 30 14.7059 29.0795C14.7059 28.1591 13.9597 27.4129 13.0392 27.4129C12.1188 27.4129 11.3726 28.1591 11.3726 29.0795C11.3726 30 12.1188 30.7462 13.0392 30.7462Z" fill="url(#paint16_radial_30_6145)"/>
<path d="M13.0392 29.8639C13.4724 29.8639 13.8235 29.5127 13.8235 29.0795C13.8235 28.6464 13.4724 28.2952 13.0392 28.2952C12.606 28.2952 12.2549 28.6464 12.2549 29.0795C12.2549 29.5127 12.606 29.8639 13.0392 29.8639Z" fill="url(#paint17_linear_30_6145)"/>
<path d="M1.96061 19.5697C2.88109 19.5697 3.62728 18.8235 3.62728 17.9031C3.62728 16.9826 2.88109 16.2364 1.96061 16.2364C1.04014 16.2364 0.293945 16.9826 0.293945 17.9031C0.293945 18.8235 1.04014 19.5697 1.96061 19.5697Z" fill="url(#paint18_radial_30_6145)"/>
<path d="M1.96107 18.6874C2.39424 18.6874 2.74539 18.3363 2.74539 17.9031C2.74539 17.4699 2.39424 17.1188 1.96107 17.1188C1.52791 17.1188 1.17676 17.4699 1.17676 17.9031C1.17676 18.3363 1.52791 18.6874 1.96107 18.6874Z" fill="url(#paint19_linear_30_6145)"/>
<path d="M1.66667 16.4652C2.58714 16.4652 3.33333 15.719 3.33333 14.7985C3.33333 13.878 2.58714 13.1318 1.66667 13.1318C0.746192 13.1318 0 13.878 0 14.7985C0 15.719 0.746192 16.4652 1.66667 16.4652Z" fill="url(#paint20_radial_30_6145)"/>
<path d="M1.66664 15.5828C2.0998 15.5828 2.45095 15.2317 2.45095 14.7985C2.45095 14.3653 2.0998 14.0142 1.66664 14.0142C1.23347 14.0142 0.882324 14.3653 0.882324 14.7985C0.882324 15.2317 1.23347 15.5828 1.66664 15.5828Z" fill="url(#paint21_linear_30_6145)"/>
<path d="M3.88883 9.40633C4.80931 9.40633 5.5555 8.66014 5.5555 7.73966C5.5555 6.81919 4.80931 6.073 3.88883 6.073C2.96836 6.073 2.22217 6.81919 2.22217 7.73966C2.22217 8.66014 2.96836 9.40633 3.88883 9.40633Z" fill="url(#paint22_radial_30_6145)"/>
<path d="M3.88881 8.52398C4.32197 8.52398 4.67312 8.17283 4.67312 7.73967C4.67312 7.3065 4.32197 6.95535 3.88881 6.95535C3.45564 6.95535 3.10449 7.3065 3.10449 7.73967C3.10449 8.17283 3.45564 8.52398 3.88881 8.52398Z" fill="url(#paint23_linear_30_6145)"/>
<path d="M4.15039 5.28871C4.15039 6.20374 4.90202 6.95537 5.81706 6.95537C6.73209 6.95537 7.48372 6.20374 7.48372 5.28871C7.48372 4.37367 6.73209 3.62204 5.81706 3.62204C4.86934 3.65472 4.15039 4.37367 4.15039 5.28871Z" fill="url(#paint24_radial_30_6145)"/>
<path d="M5 5.28868C5 5.71351 5.35948 6.07299 5.78431 6.07299C6.20915 6.07299 6.56863 5.71351 6.56863 5.28868C6.56863 4.86384 6.20915 4.50436 5.78431 4.50436C5.35948 4.53704 5 4.86384 5 5.28868Z" fill="url(#paint25_linear_30_6145)"/>
<path d="M24.8366 6.0403C25.7571 6.0403 26.5033 5.29411 26.5033 4.37364C26.5033 3.45316 25.7571 2.70697 24.8366 2.70697C23.9161 2.70697 23.1699 3.45316 23.1699 4.37364C23.1699 5.29411 23.9161 6.0403 24.8366 6.0403Z" fill="url(#paint26_radial_30_6145)"/>
<path d="M24.8366 5.15798C25.2697 5.15798 25.6209 4.80683 25.6209 4.37367C25.6209 3.9405 25.2697 3.58936 24.8366 3.58936C24.4034 3.58936 24.0522 3.9405 24.0522 4.37367C24.0522 4.80683 24.4034 5.15798 24.8366 5.15798Z" fill="url(#paint27_linear_30_6145)"/>
<defs>
<linearGradient id="paint0_linear_30_6145" x1="9.92055" y1="10.9076" x2="9.92055" y2="30.8506" gradientUnits="userSpaceOnUse">
<stop offset="0.0873016" stop-color="#EB5757"/>
<stop offset="0.9709" stop-color="#3C53D7"/>
</linearGradient>
<linearGradient id="paint1_linear_30_6145" x1="15.6565" y1="23.8964" x2="15.6565" y2="30.0229" gradientUnits="userSpaceOnUse">
<stop offset="0.0873016" stop-color="#EB5757"/>
<stop offset="0.9709" stop-color="#3C53D7"/>
</linearGradient>
<linearGradient id="paint2_linear_30_6145" x1="20.753" y1="5.18889" x2="20.753" y2="10.8048" gradientUnits="userSpaceOnUse">
<stop offset="0.0873016" stop-color="#EB5757"/>
<stop offset="0.9709" stop-color="#3C53D7"/>
</linearGradient>
<linearGradient id="paint3_linear_30_6145" x1="10.4257" y1="13.925" x2="10.4257" y2="27.0076" gradientUnits="userSpaceOnUse">
<stop offset="0.0873016" stop-color="#EB5757"/>
<stop offset="0.9709" stop-color="#3C53D7"/>
</linearGradient>
<radialGradient id="paint4_radial_30_6145" cx="0" cy="0" r="1" gradientUnits="userSpaceOnUse" gradientTransform="translate(12.5311 8.52338) scale(1.51239)">
<stop stop-color="#7F00FE"/>
<stop offset="1" stop-color="#450528" stop-opacity="0"/>
</radialGradient>
<linearGradient id="paint5_linear_30_6145" x1="12.5165" y1="8.37197" x2="12.5165" y2="9.90359" gradientUnits="userSpaceOnUse">
<stop offset="0.0873016" stop-color="#EB5757"/>
<stop offset="0.9709" stop-color="#3C53D7"/>
</linearGradient>
<radialGradient id="paint6_radial_30_6145" cx="0" cy="0" r="1" gradientUnits="userSpaceOnUse" gradientTransform="translate(12.5311 21.4972) scale(1.51239)">
<stop stop-color="#7F00FE"/>
<stop offset="1" stop-color="#450528" stop-opacity="0"/>
</radialGradient>
<linearGradient id="paint7_linear_30_6145" x1="12.5165" y1="21.3459" x2="12.5165" y2="22.8775" gradientUnits="userSpaceOnUse">
<stop offset="0.0873016" stop-color="#EB5757"/>
<stop offset="0.9709" stop-color="#3C53D7"/>
</linearGradient>
<linearGradient id="paint8_linear_30_6145" x1="20.2305" y1="27.364" x2="20.2305" y2="30.491" gradientUnits="userSpaceOnUse">
<stop offset="0.0873016" stop-color="#EB5757"/>
<stop offset="0.9709" stop-color="#3C53D7"/>
</linearGradient>
<linearGradient id="paint9_linear_30_6145" x1="15.1339" y1="2.87091" x2="15.1339" y2="7.14667" gradientUnits="userSpaceOnUse">
<stop offset="0.0873016" stop-color="#EB5757"/>
<stop offset="0.9709" stop-color="#3C53D7"/>
</linearGradient>
<linearGradient id="paint10_linear_30_6145" x1="2.84335" y1="10.5286" x2="2.84335" y2="18.1548" gradientUnits="userSpaceOnUse">
<stop offset="0.0873016" stop-color="#EB5757"/>
<stop offset="0.9709" stop-color="#3C53D7"/>
</linearGradient>
<linearGradient id="paint11_linear_30_6145" x1="7.55087" y1="22.1353" x2="7.55087" y2="33.4948" gradientUnits="userSpaceOnUse">
<stop offset="0.0873016" stop-color="#EB5757"/>
<stop offset="0.9709" stop-color="#3C53D7"/>
</linearGradient>
<radialGradient id="paint12_radial_30_6145" cx="0" cy="0" r="1" gradientUnits="userSpaceOnUse" gradientTransform="translate(24.7206 26.1378) scale(1.51239)">
<stop stop-color="#7F00FE"/>
<stop offset="1" stop-color="#450528" stop-opacity="0"/>
</radialGradient>
<linearGradient id="paint13_linear_30_6145" x1="24.7064" y1="25.9864" x2="24.7064" y2="27.518" gradientUnits="userSpaceOnUse">
<stop offset="0.0873016" stop-color="#EB5757"/>
<stop offset="0.9709" stop-color="#3C53D7"/>
</linearGradient>
<radialGradient id="paint14_radial_30_6145" cx="0" cy="0" r="1" gradientUnits="userSpaceOnUse" gradientTransform="translate(16.1586 29.4384) scale(1.51239)">
<stop stop-color="#7F00FE"/>
<stop offset="1" stop-color="#450528" stop-opacity="0"/>
</radialGradient>
<linearGradient id="paint15_linear_30_6145" x1="16.1439" y1="29.287" x2="16.1439" y2="30.8186" gradientUnits="userSpaceOnUse">
<stop offset="0.0873016" stop-color="#EB5757"/>
<stop offset="0.9709" stop-color="#3C53D7"/>
</linearGradient>
<radialGradient id="paint16_radial_30_6145" cx="0" cy="0" r="1" gradientUnits="userSpaceOnUse" gradientTransform="translate(13.0541 29.0789) scale(1.51239)">
<stop stop-color="#7F00FE"/>
<stop offset="1" stop-color="#450528" stop-opacity="0"/>
</radialGradient>
<linearGradient id="paint17_linear_30_6145" x1="13.0394" y1="28.9275" x2="13.0394" y2="30.4592" gradientUnits="userSpaceOnUse">
<stop offset="0.0873016" stop-color="#EB5757"/>
<stop offset="0.9709" stop-color="#3C53D7"/>
</linearGradient>
<radialGradient id="paint18_radial_30_6145" cx="0" cy="0" r="1" gradientUnits="userSpaceOnUse" gradientTransform="translate(1.97548 17.9024) scale(1.51239)">
<stop stop-color="#7F00FE"/>
<stop offset="1" stop-color="#450528" stop-opacity="0"/>
</radialGradient>
<linearGradient id="paint19_linear_30_6145" x1="1.96132" y1="17.7511" x2="1.96132" y2="19.2827" gradientUnits="userSpaceOnUse">
<stop offset="0.0873016" stop-color="#EB5757"/>
<stop offset="0.9709" stop-color="#3C53D7"/>
</linearGradient>
<radialGradient id="paint20_radial_30_6145" cx="0" cy="0" r="1" gradientUnits="userSpaceOnUse" gradientTransform="translate(1.68154 14.7979) scale(1.51239)">
<stop stop-color="#7F00FE"/>
<stop offset="1" stop-color="#450528" stop-opacity="0"/>
</radialGradient>
<linearGradient id="paint21_linear_30_6145" x1="1.66689" y1="14.6465" x2="1.66689" y2="16.1781" gradientUnits="userSpaceOnUse">
<stop offset="0.0873016" stop-color="#EB5757"/>
<stop offset="0.9709" stop-color="#3C53D7"/>
</linearGradient>
<radialGradient id="paint22_radial_30_6145" cx="0" cy="0" r="1" gradientUnits="userSpaceOnUse" gradientTransform="translate(3.9037 7.73904) scale(1.51239)">
<stop stop-color="#7F00FE"/>
<stop offset="1" stop-color="#450528" stop-opacity="0"/>
</radialGradient>
<linearGradient id="paint23_linear_30_6145" x1="3.88906" y1="7.58767" x2="3.88906" y2="9.11929" gradientUnits="userSpaceOnUse">
<stop offset="0.0873016" stop-color="#EB5757"/>
<stop offset="0.9709" stop-color="#3C53D7"/>
</linearGradient>
<radialGradient id="paint24_radial_30_6145" cx="0" cy="0" r="1" gradientUnits="userSpaceOnUse" gradientTransform="translate(5.83193 5.28809) scale(1.51239)">
<stop stop-color="#7F00FE"/>
<stop offset="1" stop-color="#450528" stop-opacity="0"/>
</radialGradient>
<linearGradient id="paint25_linear_30_6145" x1="5.78457" y1="5.13668" x2="5.78457" y2="6.6683" gradientUnits="userSpaceOnUse">
<stop offset="0.0873016" stop-color="#EB5757"/>
<stop offset="0.9709" stop-color="#3C53D7"/>
</linearGradient>
<radialGradient id="paint26_radial_30_6145" cx="0" cy="0" r="1" gradientUnits="userSpaceOnUse" gradientTransform="translate(24.8515 4.37302) scale(1.51239)">
<stop stop-color="#7F00FE"/>
<stop offset="1" stop-color="#450528" stop-opacity="0"/>
</radialGradient>
<linearGradient id="paint27_linear_30_6145" x1="24.8368" y1="4.22167" x2="24.8368" y2="5.75329" gradientUnits="userSpaceOnUse">
<stop offset="0.0873016" stop-color="#EB5757"/>
<stop offset="0.9709" stop-color="#3C53D7"/>
</linearGradient>
</defs>
</svg>
