<svg width="11" height="10" viewBox="0 0 11 10" fill="none" xmlns="http://www.w3.org/2000/svg">
<path d="M3.3824 -0.00244141C3.47522 -0.00244141 3.56425 0.0344335 3.62989 0.100071C3.69552 0.165709 3.7324 0.254733 3.7324 0.347559V1.00206H7.4909V0.352059C7.4909 0.259233 7.52777 0.170209 7.59341 0.104571C7.65905 0.0389335 7.74807 0.00205859 7.8409 0.00205859C7.93372 0.00205859 8.02275 0.0389335 8.08839 0.104571C8.15402 0.170209 8.1909 0.259233 8.1909 0.352059V1.00206H9.5459C9.81103 1.00206 10.0653 1.10735 10.2528 1.29478C10.4404 1.4822 10.5458 1.73643 10.5459 2.00156V8.99806C10.5458 9.26319 10.4404 9.51741 10.2528 9.70484C10.0653 9.89227 9.81103 9.99756 9.5459 9.99756H1.5459C1.28077 9.99756 1.02649 9.89227 0.838968 9.70484C0.651446 9.51741 0.546031 9.26319 0.545898 8.99806V2.00156C0.546031 1.73643 0.651446 1.4822 0.838968 1.29478C1.02649 1.10735 1.28077 1.00206 1.5459 1.00206H3.0324V0.347059C3.03253 0.254319 3.06946 0.165424 3.13509 0.0998944C3.20071 0.0343648 3.28966 -0.0024415 3.3824 -0.00244141V-0.00244141ZM1.2459 3.86856V8.99806C1.2459 9.03745 1.25366 9.07647 1.26873 9.11286C1.28381 9.14926 1.30591 9.18233 1.33377 9.21019C1.36162 9.23805 1.3947 9.26015 1.43109 9.27522C1.46749 9.2903 1.5065 9.29806 1.5459 9.29806H9.5459C9.58529 9.29806 9.62431 9.2903 9.6607 9.27522C9.6971 9.26015 9.73017 9.23805 9.75803 9.21019C9.78589 9.18233 9.80799 9.14926 9.82306 9.11286C9.83814 9.07647 9.8459 9.03745 9.8459 8.99806V3.87556L1.2459 3.86856ZM3.8794 7.30706V8.14006H3.0459V7.30706H3.8794ZM5.9624 7.30706V8.14006H5.1294V7.30706H5.9624ZM8.0459 7.30706V8.14006H7.2124V7.30706H8.0459ZM3.8794 5.31856V6.15156H3.0459V5.31856H3.8794ZM5.9624 5.31856V6.15156H5.1294V5.31856H5.9624ZM8.0459 5.31856V6.15156H7.2124V5.31856H8.0459ZM3.0324 1.70156H1.5459C1.5065 1.70156 1.46749 1.70932 1.43109 1.72439C1.3947 1.73947 1.36162 1.76157 1.33377 1.78943C1.30591 1.81728 1.28381 1.85036 1.26873 1.88675C1.25366 1.92315 1.2459 1.96216 1.2459 2.00156V3.16906L9.8459 3.17606V2.00156C9.8459 1.96216 9.83814 1.92315 9.82306 1.88675C9.80799 1.85036 9.78589 1.81728 9.75803 1.78943C9.73017 1.76157 9.6971 1.73947 9.6607 1.72439C9.62431 1.70932 9.58529 1.70156 9.5459 1.70156H8.1909V2.16606C8.1909 2.25888 8.15402 2.34791 8.08839 2.41355C8.02275 2.47918 7.93372 2.51606 7.8409 2.51606C7.74807 2.51606 7.65905 2.47918 7.59341 2.41355C7.52777 2.34791 7.4909 2.25888 7.4909 2.16606V1.70156H3.7324V2.16156C3.7324 2.25438 3.69552 2.34341 3.62989 2.40905C3.56425 2.47468 3.47522 2.51156 3.3824 2.51156C3.28957 2.51156 3.20055 2.47468 3.13491 2.40905C3.06927 2.34341 3.0324 2.25438 3.0324 2.16156V1.70156Z" fill="#616161"/>
</svg>
