<svg width="33" height="33" viewBox="0 0 33 33" fill="none" xmlns="http://www.w3.org/2000/svg">
<rect x="0.662109" y="0.983398" width="31" height="31" rx="9.5" stroke="#616161"/>
<path d="M18.3064 10.4878H16.9157C16.5667 10.4656 16.2174 10.5275 15.8916 10.6693C15.5658 10.8111 15.2709 11.0294 15.027 11.3096C14.7831 11.5898 14.5959 11.9253 14.4778 12.2934C14.3598 12.6615 14.3138 13.0536 14.3429 13.4433V14.8044H12.9439C12.886 14.8044 12.8305 14.8302 12.7895 14.876C12.7486 14.9218 12.7256 14.9839 12.7256 15.0487V17.0172C12.7258 17.0819 12.7488 17.1439 12.7897 17.1897C12.8306 17.2354 12.8861 17.2612 12.9439 17.2614H14.3429V22.2392C14.3431 22.304 14.3663 22.3661 14.4073 22.4119C14.4484 22.4577 14.504 22.4834 14.562 22.4834H16.3859C16.4438 22.4834 16.4994 22.4577 16.5405 22.4119C16.5816 22.3661 16.6047 22.304 16.6049 22.2392V17.2614H18.2396C18.2976 17.2614 18.3531 17.2357 18.394 17.1899C18.435 17.1441 18.458 17.082 18.458 17.0172V15.0432C18.4577 14.9785 18.4348 14.9165 18.394 14.8706C18.3737 14.8478 18.3495 14.8297 18.3229 14.8175C18.2963 14.8052 18.2677 14.7989 18.2389 14.799H16.6035V13.6448C16.6035 13.0902 16.7217 12.8087 17.3684 12.8087H18.3057C18.3636 12.8087 18.4192 12.7829 18.4601 12.7371C18.501 12.6913 18.524 12.6292 18.524 12.5645V10.7328C18.524 10.6681 18.5012 10.606 18.4604 10.5601C18.4196 10.5142 18.3643 10.4882 18.3064 10.4878Z" fill="#616161"/>
</svg>
