<svg width="33" height="33" viewBox="0 0 33 33" fill="none" xmlns="http://www.w3.org/2000/svg">
<rect x="0.623535" y="0.983398" width="31" height="31" rx="9.5" stroke="#616161"/>
<path d="M21.7963 13.622L21.7964 13.6329L21.797 13.6438C21.8381 14.3692 21.8382 14.5957 21.8397 16.4879L21.8397 16.4943C21.8397 16.4944 21.8397 16.4945 21.8397 16.4947C21.8397 18.3869 21.83 18.6157 21.7982 19.3522L21.7981 19.3522L21.7978 19.3641C21.7876 19.8901 21.6921 20.4076 21.5144 20.898C21.3642 21.2976 21.1357 21.6594 20.8445 21.9607C20.5534 22.262 20.2059 22.4962 19.8248 22.6497C19.3551 22.8318 18.8594 22.9298 18.3587 22.94L18.3486 22.9402L18.3386 22.9409C17.6402 22.9832 17.4211 22.9834 15.5861 22.9834C13.7582 22.9834 13.538 22.9733 12.8265 22.9405L12.8265 22.9404L12.8204 22.9402C12.3178 22.9231 11.8213 22.8174 11.3523 22.6273L11.3504 22.6265C10.9681 22.4734 10.6197 22.239 10.3279 21.9373C10.0366 21.6361 9.8081 21.2744 9.65793 20.8749C9.48011 20.3836 9.38461 19.866 9.37443 19.3408L9.37425 19.3315L9.37372 19.3222C9.33267 18.5969 9.33252 18.3694 9.33252 16.471C9.33252 14.5792 9.34224 14.3504 9.37406 13.6131L9.37421 13.6131L9.37444 13.6006C9.38401 13.0767 9.47996 12.5586 9.65789 12.0687C9.8078 11.6689 10.0361 11.307 10.3274 11.0057C10.6185 10.7044 10.966 10.4703 11.3473 10.3172C11.8169 10.1351 12.3126 10.0367 12.8133 10.026L12.8229 10.0258L12.8324 10.0252C13.5311 9.98356 13.7505 9.9834 15.5854 9.9834C17.4137 9.9834 17.6338 9.99269 18.3443 10.0256L18.3443 10.0257L18.3568 10.026C18.8577 10.0366 19.3535 10.135 19.8234 10.3171C20.2046 10.4704 20.5521 10.7046 20.8432 11.0058C21.1345 11.3072 21.3629 11.6691 21.5129 12.069C21.6935 12.5654 21.7894 13.0909 21.7963 13.622ZM18.2551 11.8075L18.6146 12.1549L18.2551 11.8075C18.1344 11.9323 18.0396 12.0796 17.9752 12.2404C17.9108 12.4013 17.8779 12.5731 17.8779 12.7463C17.8779 12.9004 17.9038 13.0497 17.9517 13.1891C17.2722 12.6673 16.4421 12.379 15.5809 12.379C13.3731 12.379 11.6133 14.2249 11.6133 16.4671C11.6133 18.7093 13.3731 20.5552 15.5809 20.5552C16.6388 20.5552 17.6497 20.1202 18.3924 19.3517C19.1344 18.5839 19.5484 17.5459 19.5484 16.4671C19.5484 15.5764 19.2663 14.7137 18.7503 14.0077C18.8858 14.0564 19.0324 14.083 19.1865 14.083C19.9251 14.083 20.4943 13.4685 20.4943 12.7463C20.4943 12.5731 20.4613 12.4013 20.3969 12.2404C20.3325 12.0796 20.2377 11.9323 20.1171 11.8075C19.9964 11.6826 19.8523 11.5826 19.6923 11.5141C19.5324 11.4455 19.3603 11.41 19.1861 11.41C19.0119 11.41 18.8398 11.4455 18.6798 11.5141C18.5199 11.5826 18.3757 11.6826 18.2551 11.8075Z" fill="#616161" stroke="#616161"/>
<path d="M17.333 16.467C17.333 17.4943 16.5325 18.2977 15.5806 18.2977C14.6287 18.2977 13.8281 17.4943 13.8281 16.467C13.8281 15.4396 14.6287 14.6362 15.5806 14.6362C16.5325 14.6362 17.333 15.4396 17.333 16.467Z" fill="#616161" stroke="#616161"/>
</svg>
