<svg width="33" height="33" viewBox="0 0 33 33" fill="none" xmlns="http://www.w3.org/2000/svg">
<rect x="1.30273" y="0.983398" width="31" height="31" rx="9.5" stroke="#616161"/>
<path d="M12.1237 10.9834H12.1233C12.0085 10.9833 11.8944 11.0066 11.7874 11.0524C11.6803 11.0982 11.5818 11.1659 11.4981 11.2524C11.4144 11.339 11.347 11.4427 11.3008 11.5581C11.2546 11.6734 11.2305 11.7976 11.2305 11.9234L12.1237 10.9834ZM12.1237 10.9834C12.2384 10.9834 12.3524 11.0068 12.4594 11.0526C12.5664 11.0985 12.6648 11.1663 12.7484 11.2529C12.8321 11.3395 12.8993 11.4433 12.9454 11.5586C12.9915 11.6741 13.0154 11.7983 13.0153 11.9241V11.9245M12.1237 10.9834L13.0153 11.9245M13.0153 11.9245C13.0153 12.4662 12.593 12.8798 12.1221 12.8798C11.6531 12.8798 11.2306 12.4671 11.2305 11.9236L13.0153 11.9245ZM16.7593 16.0638H17.0653L17.2045 15.7912C17.4557 15.2996 17.9685 14.8016 18.9195 14.8016C20.0091 14.8016 20.5435 15.1542 20.8465 15.6466C21.1837 16.1947 21.3002 17.0152 21.3002 18.0827V21.9834H19.8981V18.5834V18.5729C19.8981 18.1302 19.8981 17.5077 19.7021 16.9955C19.5981 16.7237 19.4298 16.4552 19.1559 16.2575C18.8797 16.0581 18.5395 15.9621 18.1483 15.9621C17.7691 15.9621 17.4342 16.039 17.1544 16.2089C16.8711 16.3809 16.6834 16.6244 16.562 16.8899C16.3344 17.3876 16.3225 18.0115 16.3225 18.5174V21.9834H14.9204V14.9712H16.2255V15.5638V16.0638H16.7255H16.7593ZM12.8255 21.9834H11.4218V14.9707H12.8255V21.9834Z" fill="#616161" stroke="#616161"/>
</svg>
