<svg width="11" height="10" viewBox="0 0 11 10" fill="none" xmlns="http://www.w3.org/2000/svg">
<path d="M5.59815 9.99756C4.60924 9.99756 3.64254 9.70431 2.82029 9.15491C1.99805 8.6055 1.35719 7.82461 0.978749 6.91098C0.600311 5.99735 0.501294 4.99201 0.69422 4.02211C0.887146 3.0522 1.36335 2.16129 2.06261 1.46203C2.76187 0.762764 3.65279 0.28656 4.62269 0.0936344C5.5926 -0.0992916 6.59793 -0.000274991 7.51156 0.378163C8.42519 0.756601 9.20609 1.39746 9.75549 2.21971C10.3049 3.04195 10.5981 4.00865 10.5981 4.99756C10.5981 6.32364 10.0714 7.59541 9.13368 8.53309C8.196 9.47077 6.92423 9.99756 5.59815 9.99756ZM5.59815 0.711846C4.75051 0.711846 3.92191 0.963199 3.21713 1.43412C2.51235 1.90504 1.96304 2.57438 1.63866 3.35749C1.31429 4.1406 1.22942 5.00231 1.39478 5.83366C1.56015 6.66501 1.96832 7.42865 2.56769 8.02802C3.16706 8.62738 3.9307 9.03556 4.76204 9.20092C5.59339 9.36629 6.45511 9.28142 7.23822 8.95704C8.02133 8.63267 8.69067 8.08336 9.16159 7.37857C9.63251 6.67379 9.88386 5.84519 9.88386 4.99756C9.88386 3.86092 9.43233 2.77083 8.6286 1.9671C7.82487 1.16338 6.73479 0.711846 5.59815 0.711846Z" fill="#616161"/>
<path d="M7.23764 7.14035L5.24121 5.14392V1.7832H5.9555V4.84749L7.74121 6.63677L7.23764 7.14035Z" fill="#616161"/>
</svg>
