<svg width="33" height="33" viewBox="0 0 33 33" fill="none" xmlns="http://www.w3.org/2000/svg">
<rect x="0.482422" y="0.483398" width="32" height="32" rx="10" fill="#EB5757"/>
<path d="M22.1502 12.7727C21.6648 12.9958 21.1499 13.1424 20.6225 13.2076C21.1781 12.8626 21.5942 12.3211 21.7937 11.6832C21.2703 12.0048 20.6972 12.2308 20.0997 12.3511C19.7346 11.9491 19.2612 11.6698 18.7409 11.5496C18.2206 11.4293 17.6774 11.4736 17.1817 11.6767C16.686 11.8798 16.2607 12.2324 15.961 12.6886C15.6613 13.1449 15.501 13.6837 15.5009 14.2354C15.5012 14.4464 15.524 14.6567 15.5691 14.8625C14.511 14.808 13.4759 14.5238 12.5309 14.0283C11.5859 13.5329 10.7521 12.8373 10.0839 11.9867C9.74337 12.5924 9.63891 13.3096 9.79177 13.9922C9.94462 14.6748 10.3433 15.2713 10.9065 15.6603C10.4847 15.6477 10.0721 15.5298 9.70374 15.3167V15.3501C9.70403 15.9854 9.9161 16.6011 10.3042 17.0933C10.6922 17.5856 11.2325 17.9243 11.8338 18.0522C11.6054 18.1144 11.3701 18.1459 11.1338 18.1457C10.9654 18.146 10.7973 18.1298 10.6318 18.0975C10.8024 18.6441 11.1335 19.122 11.5789 19.4648C12.0243 19.8076 12.5619 19.9981 13.1169 20.01C12.1736 20.7738 11.0098 21.1877 9.81204 21.1855C9.60092 21.1853 9.38997 21.1729 9.18018 21.1484C10.3236 21.9061 11.6429 22.3315 12.9999 22.38C14.3569 22.4285 15.7014 22.0983 16.8926 21.424C18.0838 20.7498 19.0778 19.7563 19.7702 18.5478C20.4627 17.3393 20.8282 15.9602 20.8283 14.5553L20.8205 14.199C21.3431 13.8104 21.7937 13.3274 22.1509 12.7734L22.1502 12.7727Z" fill="white"/>
</svg>
